<svg preserveAspectRatio="none" width="100%" height="100%" overflow="visible" style="display: block;" viewBox="0 0 35 40" fill="none" xmlns="http://www.w3.org/2000/svg">
<g id="11772_line 1" clip-path="url(#clip0_0_76)">
<path id="Vector" d="M18.5812 11.4831C18.5812 12.4388 18.5837 13.6217 18.5839 14.5372C18.5838 14.5568 18.5876 14.5763 18.5951 14.5944C18.6025 14.6126 18.6135 14.629 18.6273 14.6429C18.6411 14.6567 18.6575 14.6676 18.6755 14.675C18.6935 14.6824 18.7128 14.6861 18.7323 14.6859C19.5215 14.6796 20.8612 14.6758 21.7634 14.6725C21.7828 14.6726 21.802 14.6688 21.8199 14.6613C21.8378 14.6538 21.8541 14.6429 21.8678 14.6291C21.8815 14.6152 21.8923 14.5988 21.8997 14.5807C21.9071 14.5626 21.9109 14.5432 21.9108 14.5237C21.9108 13.6136 21.9052 12.4344 21.905 11.4754C21.9051 11.4558 21.9013 11.4364 21.8939 11.4183C21.8866 11.4002 21.8757 11.3838 21.862 11.3699C21.8483 11.3561 21.832 11.3452 21.814 11.3377C21.7961 11.3303 21.7769 11.3265 21.7575 11.3266C21.2346 11.3266 19.5006 11.3294 18.7275 11.3342C18.6886 11.3344 18.6513 11.3502 18.6238 11.3781C18.5964 11.406 18.5811 11.4437 18.5812 11.4831Z" fill="var(--fill-0, #211715)"/>
<path id="Vector_2" d="M28.337 39.3744C28.2504 39.2758 28.1722 39.1701 28.1032 39.0583C28.0054 38.9051 27.9153 38.7469 27.8332 38.5845C27.6652 38.2501 27.518 37.9053 27.3926 37.5523C27.1298 36.8173 26.9144 36.0659 26.7481 35.3028C26.6838 35.0139 26.6252 34.7236 26.5783 34.4314C26.5698 34.3781 26.5619 34.3248 26.5542 34.2714C26.5416 34.1854 26.5636 34.3549 26.5542 34.2734C26.5519 34.2522 26.5492 34.2313 26.547 34.2101C26.5384 34.1451 26.5346 34.0795 26.5354 34.0139C26.5717 33.6404 26.685 33.2786 26.8678 32.9517C27.0818 32.5377 27.3377 32.1471 27.6314 31.7863C28.6851 30.4673 29.9912 29.3853 31.0391 28.0597C32.0556 26.784 32.902 25.3792 33.5566 23.8811C34.3657 22.0217 34.8444 20.0329 34.9707 18.0058C35.1005 15.6734 34.746 13.3394 33.93 11.1535C33.1527 9.0765 32.0134 7.15691 30.566 5.48561C29.3558 4.04215 27.9048 2.82377 26.2786 1.88564C23.5708 0.359712 20.3202 -0.218975 17.2484 0.0731417C13.3055 0.447842 9.41606 2.07809 6.64135 4.97737C5.9485 5.67003 5.35252 6.45495 4.8699 7.3104C4.47263 8.0572 4.14219 8.83833 3.88252 9.64448C3.59017 10.5983 3.41209 11.584 3.35209 12.5806C3.31009 13.1592 3.23945 13.7337 3.21956 14.3141C3.19997 14.8889 3.24004 15.4633 3.22282 16.0378C3.21307 16.883 3.15206 17.7268 3.04013 18.5644C2.91621 19.3738 2.716 20.1981 2.28323 20.8993C2.09654 21.2094 1.85347 21.481 1.56684 21.6999C1.19819 21.9736 0.786345 22.1496 0.483436 22.5118C0.321732 22.676 0.195304 22.872 0.112058 23.0878C0.0288126 23.3035 -0.00945902 23.5342 -0.0003627 23.7656C0.00873362 23.9969 0.0650021 24.2239 0.164923 24.4323C0.264844 24.6406 0.406268 24.826 0.580349 24.9766C0.85966 25.2693 1.18884 25.5162 1.43609 25.8396C1.73179 26.2112 1.91554 26.6608 1.96548 27.1349C2.04587 28.2744 2.22243 29.4048 2.49323 30.5139C2.76675 31.612 3.18349 32.6743 3.94173 33.5265C4.55289 34.2139 5.3322 34.6186 6.19759 34.8804C7.21168 35.1844 8.26246 35.3456 9.32018 35.3594C9.81665 35.3679 10.3129 35.3321 10.8031 35.2524C10.9909 35.2212 11.189 35.1425 11.3767 35.1304C11.4536 35.125 11.5302 35.1437 11.5961 35.1839C11.6303 35.2033 11.6608 35.2287 11.6863 35.2588C11.6977 35.2717 11.7809 35.4192 11.74 35.3291C11.9453 35.8322 12.1087 36.3518 12.2283 36.8823C12.4868 37.7744 12.619 38.6989 12.6209 39.6283C12.6103 40.0914 13.3227 40.0913 13.3332 39.6283C13.3311 38.6344 13.1903 37.6458 12.915 36.6915C12.7826 36.166 12.62 35.6486 12.4281 35.1421C12.3462 34.9168 12.1944 34.7243 11.9953 34.5933C11.7962 34.4623 11.5604 34.3999 11.3233 34.4153C11.1019 34.4354 10.8856 34.5112 10.6664 34.5502C10.439 34.5886 10.2097 34.614 9.97943 34.6262C8.97203 34.6798 7.96225 34.5859 6.98151 34.3473C6.1412 34.1475 5.32018 33.8756 4.68112 33.2642C3.89736 32.5138 3.48581 31.5019 3.216 30.4658C2.9415 29.3909 2.76245 28.2934 2.68097 27.1863C2.67363 26.9583 2.63697 26.7321 2.57189 26.5136C2.4836 26.2446 2.3677 25.9856 2.22609 25.7409C1.98466 25.3628 1.69033 25.0221 1.35224 24.7292C1.1032 24.4966 0.816918 24.2418 0.732768 23.9168C0.634668 23.5381 0.867823 23.1145 1.14669 22.8486C1.45331 22.5562 1.85907 22.3958 2.18097 22.1186C2.4853 21.8504 2.74375 21.5334 2.94589 21.1803C3.81083 19.7035 3.87732 17.8518 3.93001 16.1829C3.94678 15.656 3.91517 15.1299 3.92392 14.6027C3.93416 14.0199 3.99219 13.4462 4.04532 12.8668C4.0946 12.3299 4.1268 11.7966 4.21941 11.2645C4.29685 10.8168 4.40258 10.3745 4.53597 9.94035C4.86954 8.8074 5.38479 7.73736 6.0612 6.77278C6.09633 6.72422 6.1318 6.67601 6.16761 6.62815L6.22386 6.55321C6.17652 6.61556 6.24167 6.53043 6.24642 6.52443C6.33784 6.40752 6.4306 6.29167 6.52573 6.17776C6.72431 5.94005 6.93075 5.70938 7.14506 5.48576C7.67361 4.93196 8.24562 4.42221 8.8555 3.96148C10.4581 2.77598 12.2641 1.90036 14.1823 1.3789C16.348 0.752738 18.617 0.577229 20.8518 0.86301C20.7685 0.851919 20.9416 0.87575 20.9692 0.879647C21.0315 0.888639 21.0936 0.897932 21.1557 0.907524C21.2953 0.929107 21.4346 0.952238 21.5738 0.976919C21.8481 1.02588 22.121 1.08188 22.3925 1.14493C23.0282 1.29253 23.6531 1.48459 24.2625 1.71972C25.7245 2.29826 27.0773 3.12592 28.262 4.16667C29.8565 5.55885 31.1955 7.2239 32.2178 9.08543C33.2976 11.0509 33.9768 13.2149 34.2151 15.4498C34.4191 17.5652 34.2067 19.7005 33.5901 21.7326C33.0819 23.3978 32.3296 24.9767 31.3585 26.417C30.9814 26.9823 30.5723 27.5251 30.1332 28.0427C29.6082 28.6623 29.03 29.2295 28.4619 29.8079C27.7751 30.5069 27.0928 31.2301 26.5588 32.0583C26.1844 32.6389 25.7736 33.4176 25.8278 34.1358C25.8845 34.6922 25.9848 35.2431 26.1278 35.7834C26.3034 36.5423 26.5306 37.288 26.8077 38.0153C27.0651 38.6775 27.3649 39.3432 27.8332 39.8829C28.136 40.2319 28.6381 39.7214 28.337 39.3742V39.3744Z" fill="var(--fill-0, #211715)"/>
<path id="Vector_3" d="M17.0454 10.1511C17.0454 12.06 17.0502 13.9688 17.05 15.8777C17.0513 15.9727 17.0892 16.0635 17.1557 16.1306C17.2223 16.1978 17.3121 16.2361 17.4062 16.2374C19.3011 16.2199 21.1962 16.2187 23.0904 16.2115C23.1844 16.2101 23.2743 16.1718 23.3408 16.1046C23.4073 16.0375 23.4452 15.9467 23.4466 15.8518C23.4466 13.9465 23.436 12.0412 23.4365 10.1358C23.4351 10.0408 23.3972 9.9501 23.3307 9.88294C23.2642 9.81577 23.1743 9.77743 23.0803 9.77608C21.5877 9.77608 20.095 9.77913 18.6024 9.78522C18.2018 9.78652 17.8011 9.78857 17.4003 9.79137C16.9421 9.79496 16.9411 10.5144 17.4003 10.5108C19.083 10.4972 20.7658 10.4984 22.4487 10.4958L23.0797 10.4951L22.7235 10.1353C22.7235 12.0408 22.7336 13.946 22.7336 15.8513L23.0898 15.4916C21.1949 15.4988 19.2998 15.5 17.4056 15.5175L17.7618 15.8772C17.7618 13.9684 17.7568 12.0595 17.7572 10.1506C17.7579 9.6881 17.0456 9.68735 17.0454 10.1511Z" fill="var(--fill-0, #211715)"/>
<path id="Vector_4" d="M8.0751 10.6013C8.04185 11.4296 8.01796 12.2582 7.9902 13.0868C7.9902 13.1822 8.02773 13.2737 8.09453 13.3411C8.16133 13.4086 8.25193 13.4465 8.34639 13.4465C8.44086 13.4465 8.53146 13.4086 8.59826 13.3411C8.66506 13.2737 8.70258 13.1822 8.70258 13.0868C8.73034 12.2582 8.75423 11.4296 8.78747 10.6013C8.78747 10.5541 8.77826 10.5073 8.76036 10.4637C8.74246 10.42 8.71622 10.3804 8.68315 10.347C8.65007 10.3136 8.61081 10.2871 8.56759 10.269C8.52438 10.2509 8.47806 10.2416 8.43129 10.2416C8.38451 10.2416 8.33819 10.2509 8.29498 10.269C8.25176 10.2871 8.2125 10.3136 8.17942 10.347C8.14635 10.3804 8.12011 10.42 8.10221 10.4637C8.08431 10.5073 8.0751 10.5541 8.0751 10.6013Z" fill="var(--fill-0, #211715)"/>
<path id="Vector_5" d="M8.31359 14.6084C8.83452 15.5088 9.35248 16.4111 9.87608 17.31C9.92633 17.4148 10.0026 17.5048 10.0975 17.571C10.1924 17.6373 10.3027 17.6775 10.4176 17.6879C10.6325 17.7206 10.8465 17.7611 11.0611 17.7962C11.493 17.8666 11.9264 17.9275 12.3612 17.976C12.4555 17.9754 12.5458 17.9373 12.6125 17.87C12.6791 17.8027 12.7168 17.7115 12.7174 17.6163C12.7153 17.5216 12.6771 17.4313 12.6108 17.3643C12.5444 17.2973 12.455 17.2587 12.3612 17.2566C12.0488 17.2215 11.7371 17.1795 11.4262 17.1305C11.2647 17.1051 11.1032 17.0785 10.9418 17.051C10.7581 17.0363 10.5763 17.003 10.3992 16.9514L10.5564 17.0439C10.4863 16.9545 10.4268 16.8571 10.379 16.7537L10.1931 16.4321L9.76551 15.6924L8.92847 14.2451C8.69739 13.8455 8.08148 14.2071 8.3133 14.6082L8.31359 14.6084Z" fill="var(--fill-0, #211715)"/>
<path id="Vector_6" d="M12.9249 18.2271C13.1661 18.6518 13.3998 19.0814 13.6486 19.5019C13.7515 19.6932 13.922 19.8383 14.126 19.9084C14.314 19.9745 14.5165 20.0103 14.7099 20.0583C15.5588 20.2665 16.4083 20.4726 17.2625 20.6578C17.7097 20.7548 17.9007 20.0615 17.4519 19.9642C16.661 19.7927 15.874 19.6033 15.0879 19.411L14.5338 19.2749C14.4623 19.2669 14.3924 19.2486 14.3261 19.2205C14.2751 19.1706 14.2352 19.1104 14.209 19.0439L13.5396 17.8647C13.3117 17.4631 12.6959 17.8251 12.9245 18.2278L12.9249 18.2271Z" fill="var(--fill-0, #211715)"/>
<path id="Vector_7" d="M18.3333 20.8492C18.6468 21.5327 18.9633 22.2146 19.2763 22.8984C19.4322 23.2388 19.588 23.5794 19.7403 23.9215C19.77 23.9878 19.7996 24.0544 19.8293 24.1213C19.841 24.1479 19.8526 24.1746 19.8643 24.2014C19.8715 24.2181 19.894 24.2896 19.8868 24.2605C19.9188 24.3924 19.9774 24.6587 20.0203 24.8398C20.1417 25.357 20.2611 25.8751 20.3649 26.3963C20.3908 26.4878 20.4512 26.5654 20.5331 26.6124C20.6151 26.6594 20.712 26.672 20.8031 26.6476C20.8931 26.6207 20.9694 26.5595 21.0158 26.477C21.0621 26.3944 21.0751 26.297 21.0518 26.205C20.9589 25.7385 20.8531 25.2746 20.7453 24.8112C20.6736 24.4363 20.5666 24.0692 20.4259 23.7148C20.106 22.9888 19.7713 22.2693 19.4392 21.5489C19.2759 21.1945 19.1126 20.8402 18.9494 20.4859C18.9012 20.4041 18.8231 20.3448 18.7319 20.3206C18.6408 20.2965 18.5439 20.3095 18.4622 20.3569C18.3822 20.4065 18.3242 20.4854 18.3004 20.5771C18.2766 20.6688 18.2888 20.7662 18.3344 20.8491L18.3333 20.8492Z" fill="var(--fill-0, #211715)"/>
<path id="Vector_8" d="M22.7781 23.0844C23.6196 23.0844 24.461 23.0803 25.3023 23.0775C25.5715 23.0766 25.972 23.147 26.1766 22.9403C26.4219 22.6929 26.6426 22.4144 26.8707 22.1509C27.2027 21.7677 27.5352 21.3838 27.8538 20.9891C27.9181 20.9203 27.954 20.8293 27.954 20.7347C27.954 20.6401 27.9181 20.5491 27.8538 20.4804C27.7867 20.4136 27.6962 20.3761 27.602 20.3761C27.5077 20.3761 27.4172 20.4136 27.3501 20.4804C26.8045 21.1563 26.2386 21.8279 25.6451 22.4616L25.8974 22.3567C24.8586 22.3567 23.8182 22.3653 22.7786 22.3654C22.3203 22.3654 22.3195 23.0848 22.7786 23.0848L22.7781 23.0844Z" fill="var(--fill-0, #211715)"/>
<path id="Vector_9" d="M28.6548 20.1055C29.2043 19.5903 29.7406 19.0614 30.2636 18.5186C30.3942 18.3828 30.5238 18.2462 30.6526 18.1087C30.7918 17.96 30.9829 17.8127 30.9973 17.5953C31.011 17.3892 30.9953 17.1757 30.9927 16.9696C30.9797 15.9089 30.9528 14.8483 30.9322 13.7878C30.9228 13.3128 30.9127 12.8377 30.9124 12.3626C30.9124 11.8997 30.2001 11.8988 30.2001 12.3626C30.2012 14.1072 30.2841 15.8509 30.285 17.5953L30.3888 17.3405C29.67 18.1199 28.924 18.8718 28.1506 19.5962C27.8139 19.9119 28.3185 20.4206 28.6543 20.1058L28.6548 20.1055Z" fill="var(--fill-0, #211715)"/>
<path id="Vector_10" d="M13.1218 6.26064C14.134 6.14194 15.1471 6.03103 16.16 5.91802C17.5707 5.76064 18.9815 5.60462 20.3924 5.44994C20.9078 5.39358 21.4233 5.33708 21.939 5.28342C22.0327 5.28081 22.1218 5.24208 22.188 5.17518C22.2543 5.10828 22.2926 5.01829 22.2952 4.92371C22.2945 4.82852 22.2568 4.73741 22.1901 4.67009C22.1235 4.60278 22.0333 4.56467 21.939 4.564C20.8408 4.67821 19.7437 4.80126 18.6463 4.92251C17.259 5.07589 15.8719 5.23042 14.485 5.38609C14.0306 5.43735 13.5763 5.48801 13.1221 5.54122C13.0285 5.54397 12.9395 5.58275 12.8733 5.64962C12.8071 5.71649 12.7687 5.8064 12.766 5.90093C12.7665 5.99615 12.8043 6.0873 12.8709 6.15463C12.9376 6.22196 13.0279 6.26005 13.1221 6.26064H13.1218Z" fill="var(--fill-0, #211715)"/>
<path id="Vector_11" d="M22.4219 22.7247C22.4219 23.3049 22.4179 23.885 22.4178 24.4654C22.4178 25.1337 22.8764 25.6794 23.2786 26.1703C23.3457 26.2373 23.4364 26.275 23.5309 26.275C23.6253 26.275 23.716 26.2373 23.7832 26.1703C23.848 26.1018 23.8842 26.0107 23.8842 25.9159C23.8842 25.8212 23.848 25.73 23.7832 25.6616C23.5943 25.4284 23.4198 25.1836 23.2606 24.9288C23.204 24.8414 23.1638 24.7443 23.1419 24.6422C23.1357 24.616 23.131 24.5895 23.1278 24.5628C23.1309 24.5941 23.131 24.5838 23.131 24.5588C23.131 24.4682 23.131 24.3777 23.131 24.2872C23.131 23.7663 23.1351 23.2455 23.1351 22.7247C23.1351 22.2617 22.4227 22.2609 22.4227 22.7247H22.4219Z" fill="var(--fill-0, #211715)"/>
<path id="Vector_12" d="M23.0695 5.47527C24.295 6.12815 25.508 6.80486 26.7352 7.45369C27.141 7.66817 27.5016 7.04751 27.0948 6.83258C25.8672 6.18375 24.6541 5.50704 23.4291 4.85417C23.0239 4.63834 22.6633 5.25884 23.0695 5.47527Z" fill="var(--fill-0, #211715)"/>
<path id="Vector_13" d="M27.6391 8.14733C28.3848 9.19799 29.1318 10.2479 29.8801 11.2971C29.9295 11.3775 30.0076 11.4357 30.0983 11.4597C30.189 11.4837 30.2853 11.4717 30.3675 11.4261C30.4485 11.3775 30.5073 11.2986 30.5312 11.2065C30.5551 11.1145 30.5422 11.0166 30.4953 10.9341C29.7487 9.88379 29.0017 8.83383 28.2542 7.78417C28.2047 7.70383 28.1266 7.64568 28.036 7.62168C27.9453 7.59768 27.849 7.60965 27.7668 7.65513C27.6858 7.70382 27.6271 7.78272 27.6031 7.8748C27.5792 7.96689 27.5921 8.06477 27.6391 8.14733Z" fill="var(--fill-0, #211715)"/>
<path id="Vector_14" d="M17.7231 9.40573C17.7231 9.62575 17.7274 9.84562 17.7274 10.0652C17.7284 10.1604 17.7656 10.2516 17.8313 10.32C17.8981 10.3874 17.9886 10.4253 18.0831 10.4253C18.1776 10.4253 18.2682 10.3874 18.335 10.32C18.4005 10.2516 18.4377 10.1604 18.4389 10.0652C18.4389 9.84517 18.4345 9.6253 18.4345 9.40573C18.4336 9.31047 18.3964 9.21924 18.3307 9.15093C18.2639 9.08347 18.1733 9.04558 18.0788 9.04558C17.9843 9.04558 17.8937 9.08347 17.827 9.15093C17.7614 9.21938 17.7243 9.31053 17.7231 9.40573Z" fill="var(--fill-0, #211715)"/>
<path id="Vector_15" d="M19.1401 9.40573C19.1401 9.62575 19.1444 9.84562 19.1444 10.0652C19.1454 10.1604 19.1826 10.2517 19.2483 10.32C19.3151 10.3874 19.4057 10.4253 19.5001 10.4253C19.5946 10.4253 19.6852 10.3874 19.752 10.32C19.8175 10.2515 19.8547 10.1604 19.8559 10.0652C19.8559 9.84517 19.8516 9.6253 19.8516 9.40573C19.8506 9.31049 19.8134 9.21928 19.7477 9.15093C19.6809 9.08347 19.5903 9.04558 19.4958 9.04558C19.4014 9.04558 19.3108 9.08347 19.244 9.15093C19.1784 9.21934 19.1412 9.31051 19.1401 9.40573Z" fill="var(--fill-0, #211715)"/>
<path id="Vector_16" d="M20.557 9.40573C20.557 9.62575 20.5613 9.84562 20.5614 10.0652C20.5623 10.1605 20.5995 10.2517 20.6653 10.32C20.7321 10.3874 20.8227 10.4253 20.9172 10.4253C21.0116 10.4253 21.1022 10.3874 21.169 10.32C21.2345 10.2515 21.2717 10.1604 21.2729 10.0652C21.2729 9.84517 21.2686 9.6253 21.2685 9.40573C21.2676 9.31046 21.2304 9.21921 21.1646 9.15093C21.0978 9.08347 21.0072 9.04558 20.9127 9.04558C20.8183 9.04558 20.7277 9.08347 20.6609 9.15093C20.5954 9.21938 20.5582 9.31053 20.557 9.40573Z" fill="var(--fill-0, #211715)"/>
<path id="Vector_17" d="M21.974 9.40573C21.974 9.62575 21.9783 9.84562 21.9783 10.0652C21.9794 10.1604 22.0165 10.2516 22.0822 10.32C22.149 10.3874 22.2396 10.4253 22.3341 10.4253C22.4285 10.4253 22.5191 10.3874 22.5859 10.32C22.6515 10.2516 22.6887 10.1604 22.6898 10.0652C22.6898 9.84517 22.6855 9.6253 22.6855 9.40573C22.6846 9.31047 22.6474 9.21924 22.5816 9.15093C22.5148 9.08347 22.4242 9.04558 22.3298 9.04558C22.2353 9.04558 22.1447 9.08347 22.0779 9.15093C22.0124 9.21938 21.9752 9.31053 21.974 9.40573Z" fill="var(--fill-0, #211715)"/>
<path id="Vector_18" d="M17.7231 16.0237C17.7231 16.2437 17.7274 16.4637 17.7274 16.6832C17.7285 16.7784 17.7656 16.8696 17.8313 16.9379C17.8981 17.0054 17.9886 17.0433 18.0831 17.0433C18.1776 17.0433 18.2682 17.0054 18.335 16.9379C18.4005 16.8695 18.4377 16.7784 18.4389 16.6832C18.4389 16.4631 18.4345 16.2431 18.4345 16.0237C18.4336 15.9284 18.3964 15.8372 18.3307 15.7689C18.2639 15.7014 18.1733 15.6635 18.0788 15.6635C17.9843 15.6635 17.8937 15.7014 17.827 15.7689C17.7615 15.8374 17.7243 15.9285 17.7231 16.0237Z" fill="var(--fill-0, #211715)"/>
<path id="Vector_19" d="M19.1401 16.0237C19.1401 16.2437 19.1444 16.4637 19.1444 16.6832C19.1454 16.7784 19.1826 16.8696 19.2483 16.9379C19.3151 17.0054 19.4057 17.0433 19.5001 17.0433C19.5946 17.0433 19.6852 17.0054 19.752 16.9379C19.8174 16.8694 19.8546 16.7783 19.8559 16.6832C19.8559 16.4631 19.8516 16.2431 19.8516 16.0237C19.8506 15.9284 19.8134 15.8372 19.7477 15.7689C19.6809 15.7014 19.5903 15.6635 19.4958 15.6635C19.4014 15.6635 19.3108 15.7014 19.244 15.7689C19.1784 15.8373 19.1413 15.9285 19.1401 16.0237Z" fill="var(--fill-0, #211715)"/>
<path id="Vector_20" d="M20.557 16.0237C20.557 16.2437 20.5613 16.4637 20.5614 16.6832C20.5624 16.7784 20.5996 16.8696 20.6653 16.9379C20.7321 17.0054 20.8227 17.0433 20.9172 17.0433C21.0116 17.0433 21.1022 17.0054 21.169 16.9379C21.2345 16.8694 21.2716 16.7783 21.2729 16.6832C21.2729 16.4631 21.2686 16.2431 21.2685 16.0237C21.2676 15.9284 21.2304 15.8372 21.1646 15.7689C21.0978 15.7014 21.0072 15.6635 20.9127 15.6635C20.8183 15.6635 20.7277 15.7014 20.6609 15.7689C20.5954 15.8374 20.5582 15.9285 20.557 16.0237Z" fill="var(--fill-0, #211715)"/>
<path id="Vector_21" d="M21.974 16.0237C21.974 16.2437 21.9783 16.4637 21.9783 16.6832C21.9794 16.7784 22.0166 16.8696 22.0822 16.9379C22.149 17.0054 22.2396 17.0433 22.3341 17.0433C22.4285 17.0433 22.5191 17.0054 22.5859 16.9379C22.6515 16.8695 22.6886 16.7784 22.6898 16.6832C22.6898 16.4631 22.6855 16.2431 22.6855 16.0237C22.6846 15.9284 22.6474 15.8372 22.5816 15.7689C22.5148 15.7014 22.4242 15.6635 22.3298 15.6635C22.2353 15.6635 22.1447 15.7014 22.0779 15.7689C22.0124 15.8374 21.9753 15.9285 21.974 16.0237Z" fill="var(--fill-0, #211715)"/>
<path id="Vector_22" d="M23.8103 10.5366C23.5925 10.5366 23.3746 10.5409 23.1573 10.5409C23.063 10.542 22.9727 10.5795 22.905 10.6458C22.8382 10.7133 22.8007 10.8048 22.8007 10.9002C22.8007 10.9956 22.8382 11.0871 22.905 11.1545C22.9728 11.2207 23.063 11.2583 23.1573 11.2594C23.3752 11.2594 23.5931 11.2551 23.8103 11.2551C23.9046 11.2541 23.995 11.2165 24.0626 11.1502C24.1294 11.0827 24.1669 10.9912 24.1669 10.8958C24.1669 10.8004 24.1294 10.7089 24.0626 10.6415C23.9948 10.5754 23.9046 10.5379 23.8103 10.5366Z" fill="var(--fill-0, #211715)"/>
<path id="Vector_23" d="M23.8103 11.9673C23.5925 11.9673 23.3746 11.9717 23.1573 11.9717C23.063 11.9726 22.9727 12.0102 22.905 12.0766C22.8382 12.144 22.8007 12.2355 22.8007 12.3309C22.8007 12.4263 22.8382 12.5178 22.905 12.5853C22.9728 12.6514 23.0631 12.6889 23.1573 12.6902C23.3752 12.6902 23.5931 12.6859 23.8103 12.6859C23.9046 12.6848 23.9949 12.6472 24.0626 12.5809C24.1294 12.5135 24.1669 12.422 24.1669 12.3266C24.1669 12.2312 24.1294 12.1397 24.0626 12.0722C23.9949 12.0061 23.9046 11.9685 23.8103 11.9673Z" fill="var(--fill-0, #211715)"/>
<path id="Vector_24" d="M23.8103 13.3982C23.5925 13.3982 23.3746 13.4026 23.1573 13.4027C23.063 13.4036 22.9726 13.4412 22.905 13.5076C22.8382 13.5751 22.8007 13.6666 22.8007 13.762C22.8007 13.8574 22.8382 13.9489 22.905 14.0163C22.9728 14.0825 23.0631 14.12 23.1573 14.1213C23.3752 14.1213 23.5931 14.1169 23.8103 14.1168C23.9046 14.1158 23.995 14.0782 24.0626 14.0118C24.1294 13.9444 24.1669 13.8529 24.1669 13.7575C24.1669 13.6621 24.1294 13.5706 24.0626 13.5031C23.9948 13.4371 23.9046 13.3996 23.8103 13.3982Z" fill="var(--fill-0, #211715)"/>
<path id="Vector_25" d="M23.8103 14.8293C23.5925 14.8293 23.3746 14.8336 23.1573 14.8336C23.063 14.8347 22.9727 14.8722 22.905 14.9385C22.8382 15.006 22.8007 15.0975 22.8007 15.1929C22.8007 15.2883 22.8382 15.3798 22.905 15.4472C22.9728 15.5134 23.063 15.551 23.1573 15.5522C23.3752 15.5522 23.5931 15.5478 23.8103 15.5478C23.9046 15.5468 23.995 15.5092 24.0626 15.4429C24.1294 15.3754 24.1669 15.2839 24.1669 15.1885C24.1669 15.0932 24.1294 15.0017 24.0626 14.9342C23.9948 14.8681 23.9046 14.8306 23.8103 14.8293Z" fill="var(--fill-0, #211715)"/>
<path id="Vector_26" d="M17.257 10.5366C17.0392 10.5366 16.8215 10.5409 16.604 10.5409C16.5097 10.542 16.4194 10.5795 16.3517 10.6458C16.2849 10.7133 16.2474 10.8048 16.2474 10.9002C16.2474 10.9956 16.2849 11.0871 16.3517 11.1545C16.4195 11.2208 16.5098 11.2583 16.604 11.2594C16.8219 11.2594 17.0396 11.2551 17.257 11.2551C17.3514 11.2541 17.4417 11.2166 17.5093 11.1502C17.5761 11.0827 17.6137 10.9912 17.6137 10.8958C17.6137 10.8004 17.5761 10.7089 17.5093 10.6415C17.4415 10.5753 17.3513 10.5378 17.257 10.5366Z" fill="var(--fill-0, #211715)"/>
<path id="Vector_27" d="M17.257 11.9673C17.0392 11.9673 16.8215 11.9717 16.604 11.9717C16.5097 11.9726 16.4194 12.0102 16.3517 12.0766C16.2849 12.144 16.2474 12.2355 16.2474 12.3309C16.2474 12.4263 16.2849 12.5178 16.3517 12.5853C16.4195 12.6515 16.5098 12.689 16.604 12.6902C16.8219 12.6902 17.0396 12.6859 17.257 12.6859C17.3514 12.6848 17.4417 12.6473 17.5093 12.5809C17.5761 12.5135 17.6137 12.422 17.6137 12.3266C17.6137 12.2312 17.5761 12.1397 17.5093 12.0722C17.4416 12.006 17.3513 11.9685 17.257 11.9673Z" fill="var(--fill-0, #211715)"/>
<path id="Vector_28" d="M17.257 13.3982C17.0392 13.3982 16.8215 13.4026 16.604 13.4027C16.5097 13.4036 16.4193 13.4412 16.3517 13.5076C16.2849 13.5751 16.2474 13.6666 16.2474 13.762C16.2474 13.8574 16.2849 13.9489 16.3517 14.0163C16.4195 14.0825 16.5098 14.12 16.604 14.1213C16.8219 14.1213 17.0396 14.1169 17.257 14.1168C17.3514 14.1159 17.4417 14.0783 17.5093 14.0118C17.5761 13.9444 17.6137 13.8529 17.6137 13.7575C17.6137 13.6621 17.5761 13.5706 17.5093 13.5031C17.4415 13.437 17.3513 13.3995 17.257 13.3982Z" fill="var(--fill-0, #211715)"/>
<path id="Vector_29" d="M17.257 14.8293C17.0392 14.8293 16.8215 14.8336 16.604 14.8336C16.5097 14.8347 16.4194 14.8722 16.3517 14.9385C16.2849 15.006 16.2474 15.0975 16.2474 15.1929C16.2474 15.2883 16.2849 15.3798 16.3517 15.4472C16.4195 15.5135 16.5098 15.551 16.604 15.5522C16.8219 15.5522 17.0396 15.5478 17.257 15.5478C17.3514 15.5469 17.4417 15.5093 17.5093 15.4429C17.5761 15.3754 17.6137 15.2839 17.6137 15.1885C17.6137 15.0932 17.5761 15.0017 17.5093 14.9342C17.4415 14.8681 17.3513 14.8305 17.257 14.8293Z" fill="var(--fill-0, #211715)"/>
<path id="Vector_30" d="M26.4996 16.8534H28.808C28.9024 16.8534 28.993 16.8155 29.0598 16.7481C29.1266 16.6806 29.1641 16.5891 29.1641 16.4937C29.1641 16.3983 29.1266 16.3068 29.0598 16.2394C28.993 16.1719 28.9024 16.134 28.808 16.134H26.4996C26.4051 16.134 26.3145 16.1719 26.2477 16.2394C26.1809 16.3068 26.1434 16.3983 26.1434 16.4937C26.1434 16.5891 26.1809 16.6806 26.2477 16.7481C26.3145 16.8155 26.4051 16.8534 26.4996 16.8534Z" fill="var(--fill-0, #211715)"/>
<path id="Vector_31" d="M26.3359 15.9108C26.2602 15.9093 26.185 15.9231 26.1147 15.9516C26.0445 15.98 25.9806 16.0224 25.9269 16.0763C25.8732 16.1302 25.8309 16.1945 25.8023 16.2652C25.7737 16.336 25.7595 16.4119 25.7606 16.4883C25.7567 16.566 25.7689 16.6436 25.7963 16.7163C25.8238 16.7889 25.8659 16.855 25.92 16.9104C25.9742 16.9657 26.0391 17.009 26.1107 17.0376C26.1823 17.0662 26.2591 17.0794 26.336 17.0764C26.4132 17.0803 26.4903 17.0677 26.5623 17.0394C26.6343 17.0111 26.6996 16.9678 26.7538 16.9123C26.8081 16.8568 26.8502 16.7903 26.8773 16.7173C26.9045 16.6442 26.916 16.5662 26.9112 16.4883C26.9123 16.4119 26.8981 16.336 26.8696 16.2652C26.841 16.1944 26.7986 16.1302 26.7449 16.0763C26.6912 16.0224 26.6273 15.98 26.557 15.9515C26.4868 15.9231 26.4115 15.9093 26.3359 15.9108Z" fill="var(--fill-0, #211715)"/>
<path id="Vector_32" d="M13.7542 11.259V8.92776C13.7542 8.83236 13.7167 8.74086 13.6499 8.6734C13.5831 8.60594 13.4925 8.56805 13.398 8.56805C13.3036 8.56805 13.213 8.60594 13.1462 8.6734C13.0794 8.74086 13.0419 8.83236 13.0419 8.92776V11.259C13.0419 11.3544 13.0794 11.4459 13.1462 11.5133C13.213 11.5808 13.3036 11.6187 13.398 11.6187C13.4925 11.6187 13.5831 11.5808 13.6499 11.5133C13.7167 11.4459 13.7542 11.3544 13.7542 11.259Z" fill="var(--fill-0, #211715)"/>
<path id="Vector_33" d="M11.9592 14.7214V12.8167C11.9592 12.7213 11.9217 12.6298 11.8549 12.5623C11.7881 12.4949 11.6975 12.457 11.603 12.457C11.5085 12.457 11.4179 12.4949 11.3511 12.5623C11.2843 12.6298 11.2468 12.7213 11.2468 12.8167V14.7214C11.2468 14.8168 11.2843 14.9083 11.3511 14.9757C11.4179 15.0432 11.5085 15.0811 11.603 15.0811C11.6975 15.0811 11.7881 15.0432 11.8549 14.9757C11.9217 14.9083 11.9592 14.8168 11.9592 14.7214Z" fill="var(--fill-0, #211715)"/>
<path id="Vector_34" d="M23.9935 20.7705V18.1906C23.9935 18.0952 23.9559 18.0038 23.8891 17.9363C23.8223 17.8688 23.7317 17.8309 23.6373 17.8309C23.5428 17.8309 23.4522 17.8688 23.3854 17.9363C23.3186 18.0038 23.2811 18.0952 23.2811 18.1906V20.7705C23.2811 20.8659 23.3186 20.9574 23.3854 21.0249C23.4522 21.0923 23.5428 21.1302 23.6373 21.1302C23.7317 21.1302 23.8223 21.0923 23.8891 21.0249C23.9559 20.9574 23.9935 20.8659 23.9935 20.7705Z" fill="var(--fill-0, #211715)"/>
<path id="Vector_35" d="M25.4871 20.7705V18.1906C25.4871 18.0952 25.4496 18.0038 25.3828 17.9363C25.316 17.8688 25.2254 17.8309 25.1309 17.8309C25.0364 17.8309 24.9458 17.8688 24.879 17.9363C24.8122 18.0038 24.7747 18.0952 24.7747 18.1906V20.7705C24.7747 20.8659 24.8122 20.9574 24.879 21.0249C24.9458 21.0923 25.0364 21.1302 25.1309 21.1302C25.2254 21.1302 25.316 21.0923 25.3828 21.0249C25.4496 20.9574 25.4871 20.8659 25.4871 20.7705Z" fill="var(--fill-0, #211715)"/>
<path id="Vector_36" d="M22.4993 20.7705V18.1906C22.4993 18.0952 22.4617 18.0038 22.3949 17.9363C22.3281 17.8688 22.2375 17.8309 22.1431 17.8309C22.0486 17.8309 21.958 17.8688 21.8912 17.9363C21.8244 18.0038 21.7869 18.0952 21.7869 18.1906V20.7705C21.7869 20.8659 21.8244 20.9574 21.8912 21.0249C21.958 21.0923 22.0486 21.1302 22.1431 21.1302C22.2375 21.1302 22.3281 21.0923 22.3949 21.0249C22.4617 20.9574 22.4993 20.8659 22.4993 20.7705Z" fill="var(--fill-0, #211715)"/>
<path id="Vector_37" d="M11.852 12.5487L10.8951 11.5821C10.8282 11.5147 10.7374 11.4768 10.6429 11.4769C10.5483 11.4769 10.4577 11.5149 10.3908 11.5825C10.324 11.6501 10.2865 11.7417 10.2866 11.8372C10.2867 11.9327 10.3243 12.0242 10.3912 12.0917L11.3483 13.0582C11.3813 13.092 11.4206 13.1189 11.4639 13.1374C11.5072 13.1558 11.5538 13.1654 11.6008 13.1656C11.6478 13.1658 11.6944 13.1566 11.7379 13.1385C11.7813 13.1204 11.8208 13.0938 11.8541 13.0602C11.8873 13.0267 11.9137 12.9868 11.9316 12.9429C11.9495 12.8989 11.9586 12.8519 11.9584 12.8044C11.9582 12.7569 11.9487 12.71 11.9305 12.6662C11.9122 12.6224 11.8856 12.5828 11.852 12.5495V12.5487Z" fill="var(--fill-0, #211715)"/>
<path id="Vector_38" d="M26.1533 11.5674V9.66277C26.1533 9.56737 26.1158 9.47587 26.049 9.40842C25.9822 9.34096 25.8916 9.30306 25.7971 9.30306C25.7027 9.30306 25.6121 9.34096 25.5453 9.40842C25.4785 9.47587 25.4409 9.56737 25.4409 9.66277V11.5674C25.4409 11.6628 25.4785 11.7543 25.5453 11.8218C25.6121 11.8893 25.7027 11.9272 25.7971 11.9272C25.8916 11.9272 25.9822 11.8893 26.049 11.8218C26.1158 11.7543 26.1533 11.6628 26.1533 11.5674Z" fill="var(--fill-0, #211715)"/>
<path id="Vector_39" d="M26.0518 9.90333L27.131 8.8134C27.1646 8.7801 27.1912 8.74042 27.2095 8.69666C27.2277 8.65291 27.2372 8.60593 27.2374 8.55845C27.2376 8.51096 27.2285 8.46391 27.2106 8.42C27.1927 8.3761 27.1664 8.3362 27.1331 8.30263C27.0999 8.26905 27.0604 8.24245 27.0169 8.22437C26.9734 8.20629 26.9268 8.19708 26.8798 8.19727C26.8328 8.19747 26.7863 8.20706 26.7429 8.2255C26.6996 8.24394 26.6603 8.27086 26.6273 8.30471L25.5481 9.39463C25.4822 9.46228 25.4454 9.55348 25.4458 9.64837C25.4462 9.74327 25.4837 9.83416 25.5501 9.90126C25.6166 9.96836 25.7066 10.0062 25.8005 10.0066C25.8945 10.007 25.9848 9.96988 26.0518 9.90333Z" fill="var(--fill-0, #211715)"/>
<path id="Vector_40" d="M15.5876 9.77473L17.8137 7.52653C17.8473 7.49323 17.8739 7.45355 17.8922 7.40979C17.9104 7.36604 17.9199 7.31906 17.9201 7.27158C17.9203 7.22409 17.9112 7.17704 17.8933 7.13313C17.8754 7.08922 17.849 7.04933 17.8158 7.01576C17.7826 6.98218 17.7431 6.95558 17.6996 6.9375C17.6561 6.91942 17.6095 6.91021 17.5625 6.9104C17.5155 6.9106 17.469 6.92019 17.4256 6.93863C17.3823 6.95707 17.343 6.98399 17.31 7.01784L15.0839 9.26604C15.0503 9.29934 15.0237 9.33901 15.0054 9.38277C14.9872 9.42653 14.9777 9.47351 14.9775 9.52099C14.9773 9.56847 14.9864 9.61553 15.0043 9.65943C15.0222 9.70334 15.0485 9.74323 15.0818 9.77681C15.115 9.81039 15.1545 9.83698 15.198 9.85507C15.2415 9.87315 15.2881 9.88236 15.3351 9.88216C15.3821 9.88197 15.4286 9.87238 15.472 9.85394C15.5153 9.8355 15.5546 9.80858 15.5876 9.77473Z" fill="var(--fill-0, #211715)"/>
<path id="Vector_41" d="M15.2481 17.5913L16.1725 16.6578C16.2384 16.5902 16.2751 16.499 16.2747 16.4041C16.2744 16.3092 16.2369 16.2183 16.1704 16.1512C16.104 16.0841 16.014 16.0462 15.92 16.0458C15.826 16.0455 15.7357 16.0826 15.6687 16.1491L14.7444 17.0826C14.6785 17.1502 14.6418 17.2414 14.6422 17.3363C14.6425 17.4312 14.68 17.5221 14.7465 17.5892C14.8129 17.6563 14.9029 17.6942 14.9969 17.6946C15.0909 17.695 15.1812 17.6578 15.2481 17.5913Z" fill="var(--fill-0, #211715)"/>
<path id="Vector_42" d="M26.9599 13.5459L27.8842 12.6124C27.9178 12.5791 27.9444 12.5394 27.9627 12.4957C27.9809 12.4519 27.9904 12.4049 27.9906 12.3575C27.9908 12.31 27.9817 12.2629 27.9638 12.219C27.9459 12.1751 27.9195 12.1352 27.8863 12.1016C27.8531 12.0681 27.8135 12.0415 27.7701 12.0234C27.7266 12.0053 27.68 11.9961 27.633 11.9963C27.586 11.9965 27.5395 12.0061 27.4961 12.0245C27.4528 12.0429 27.4135 12.0699 27.3805 12.1037L26.4562 13.0372C26.3903 13.1048 26.3536 13.196 26.3539 13.2909C26.3543 13.3858 26.3918 13.4767 26.4583 13.5438C26.5247 13.6109 26.6147 13.6488 26.7087 13.6492C26.8026 13.6495 26.8929 13.6124 26.9599 13.5459Z" fill="var(--fill-0, #211715)"/>
<path id="Vector_43" d="M9.27352 9.77908C10.2563 8.77803 11.2373 7.77503 12.2346 6.78867C12.5628 6.46418 12.0588 5.95564 11.7309 6.27998C10.7335 7.26619 9.7526 8.26933 8.76966 9.27038C8.44657 9.60012 8.95013 10.1085 9.27352 9.77908Z" fill="var(--fill-0, #211715)"/>
<path id="Vector_44" d="M11.0347 14.8182C11.0333 14.8918 11.0465 14.9649 11.0736 15.0332C11.1007 15.1015 11.1411 15.1636 11.1925 15.2158C11.2438 15.268 11.3051 15.3092 11.3726 15.337C11.44 15.3648 11.5123 15.3786 11.5852 15.3775C11.6592 15.3813 11.7332 15.3695 11.8025 15.3428C11.8717 15.3161 11.9347 15.2751 11.9875 15.2225C12.0402 15.1699 12.0815 15.1068 12.1088 15.0372C12.1361 14.9676 12.1487 14.893 12.1459 14.8182C12.1496 14.7432 12.1376 14.6682 12.1106 14.5981C12.0837 14.5281 12.0424 14.4646 11.9895 14.4118C11.9365 14.359 11.8732 14.3181 11.8035 14.2917C11.7338 14.2654 11.6594 14.2542 11.5852 14.2588C11.5123 14.2578 11.44 14.2715 11.3725 14.2993C11.305 14.3271 11.2437 14.3683 11.1923 14.4205C11.141 14.4727 11.1005 14.5348 11.0735 14.6031C11.0464 14.6715 11.0332 14.7446 11.0347 14.8182Z" fill="var(--fill-0, #211715)"/>
<path id="Vector_45" d="M12.8424 8.69874C12.8409 8.77231 12.8541 8.84542 12.8812 8.91373C12.9083 8.98203 12.9488 9.04413 13.0001 9.09632C13.0515 9.14851 13.1127 9.18973 13.1802 9.21752C13.2477 9.24532 13.32 9.25911 13.3928 9.25809C13.4669 9.26187 13.5409 9.25004 13.6102 9.22336C13.6795 9.19668 13.7425 9.15574 13.7952 9.10312C13.848 9.05051 13.8893 8.98739 13.9166 8.91777C13.9439 8.84815 13.9565 8.77356 13.9537 8.69874C13.9574 8.6237 13.9454 8.54871 13.9184 8.47868C13.8914 8.40865 13.8501 8.34517 13.7972 8.29237C13.7442 8.23957 13.6808 8.19865 13.6112 8.17229C13.5415 8.14593 13.4671 8.13472 13.3928 8.13939C13.32 8.13831 13.2476 8.15206 13.1801 8.17983C13.1126 8.2076 13.0514 8.24882 13 8.30102C12.9486 8.35323 12.9082 8.41535 12.8811 8.48368C12.854 8.55201 12.8409 8.62516 12.8424 8.69874Z" fill="var(--fill-0, #211715)"/>
</g>
<defs>
<clipPath id="clip0_0_76">
<rect width="35" height="40" fill="white"/>
</clipPath>
</defs>
</svg>
