<svg preserveAspectRatio="none" width="100%" height="100%" overflow="visible" style="display: block;" viewBox="0 0 69 51" fill="none" xmlns="http://www.w3.org/2000/svg">
<g id="14991_line 2" clip-path="url(#clip0_0_42)">
<path id="Vector" d="M8.84576 12.4922L8.84259 3.50811C8.84259 2.9743 8.83677 2.49084 9.14976 2.03189C9.28257 1.83978 9.45268 1.67614 9.65003 1.55064C9.84738 1.42513 10.068 1.3403 10.2988 1.30116C10.6416 1.26587 10.9867 1.25873 11.3306 1.27981H12.2968C15.8123 1.27981 19.3276 1.27876 22.8429 1.27665L35.8751 1.27269L48.5139 1.26874L57.7477 1.26531C58.0571 1.24709 58.3674 1.25212 58.676 1.28034C59.132 1.35614 59.5403 1.60643 59.8137 1.97785C60.0709 2.37222 60.1881 2.8411 60.1465 3.30961C60.1465 3.81768 60.1465 4.32557 60.1465 4.83328C60.1465 7.14515 60.1474 9.45711 60.1492 11.7692C60.1513 17.0189 60.1533 22.2688 60.1553 27.5188L60.1576 34.6627C60.1293 34.9474 60.1371 35.2345 60.1807 35.5173C60.2602 35.7136 60.3683 35.8972 60.5013 36.0622L60.9048 36.6809C61.3457 37.3559 61.7859 38.0309 62.2253 38.706L64.9768 42.9237L66.333 45.0063C66.5531 45.3437 66.7731 45.6813 66.9928 46.0191C67.2382 46.3411 67.4485 46.6882 67.6201 47.0545C67.7188 47.381 67.7561 47.7228 67.7302 48.0628C67.7624 48.3776 67.7355 48.6956 67.6508 49.0005C67.5706 49.1994 67.4367 49.3722 67.2639 49.4999C67.0911 49.6275 66.8862 49.7049 66.6719 49.7236C66.4766 49.7397 66.275 49.7262 66.0801 49.7262H4.55046C3.84432 49.7262 3.13633 49.7418 2.43046 49.7262C2.12492 49.7256 1.83187 49.6054 1.61452 49.3914C1.20682 48.9884 1.27375 48.4506 1.27058 47.9234C1.24638 47.5915 1.27206 47.2579 1.34678 46.9335C1.4964 46.5603 1.69978 46.2108 1.95053 45.896C2.4077 45.2093 2.86515 44.5228 3.32285 43.8364C4.24991 42.4452 5.17679 41.0539 6.10349 39.6626C6.54832 38.9948 6.99262 38.3265 7.4364 37.6576C7.65828 37.3237 7.88008 36.9892 8.10179 36.654C8.22526 36.4683 8.34872 36.2824 8.47219 36.0965C8.62135 35.9163 8.74255 35.7149 8.83174 35.4989C8.86825 35.2732 8.87581 35.0437 8.85423 34.8161V34.1526C8.85423 33.6716 8.85423 33.1904 8.85423 32.7091C8.85423 31.558 8.85379 30.4069 8.85291 29.2558L8.84973 20.9979C8.84867 18.1627 8.8477 15.3274 8.84682 12.492C8.84682 11.6779 7.57688 11.6766 7.57688 12.492C7.579 18.8714 7.58129 25.2507 7.58376 31.6301L7.58535 35.3307L7.67239 35.0115C5.58035 38.1722 3.48089 41.3278 1.37403 44.4783C0.889334 45.2056 0.245369 45.9479 0.0670485 46.8244C0.00371877 47.2249 -0.0180908 47.6308 0.00196412 48.0357C-0.0205001 48.4296 0.00840283 48.8247 0.0879496 49.2111C0.233726 49.7218 0.541854 50.1716 0.966059 50.4929C1.39026 50.8142 1.90765 50.9898 2.44051 50.9931C3.38741 51.0118 4.33695 50.9931 5.28412 50.9931H66.3012C66.3885 50.9931 66.4761 50.9947 66.5634 50.9931C67.0812 50.9895 67.5846 50.8237 68.0025 50.5191C68.4204 50.2145 68.7314 49.7866 68.8916 49.296C68.9852 48.937 69.0218 48.5657 69.0004 48.1954C69.0273 47.7362 68.9868 47.2754 68.8803 46.8278C68.7362 46.4121 68.5317 46.0197 68.2733 45.6632L67.4669 44.4242C66.4282 42.8302 65.3894 41.2363 64.3506 39.6423C63.348 38.1046 62.3455 36.5669 61.3429 35.0291L61.4297 35.3484C61.4286 31.6919 61.4273 28.0353 61.4257 24.3787C61.4245 20.4124 61.423 16.4461 61.4212 12.4798C61.4212 10.6709 61.4205 8.86205 61.4191 7.05315V4.58444C61.4191 3.81285 61.5178 2.95479 61.3106 2.20456C61.1855 1.76203 60.9608 1.35371 60.6537 1.0106C60.3466 0.667483 59.965 0.398586 59.538 0.224312C58.953 -0.0153099 58.3474 -0.00054765 57.7281 -0.00028404H54.8292L46.9532 0.00367012L37.4323 0.00656984L27.4316 0.00973317L18.2817 0.0126329L11.151 0.0147418C10.4033 0.0147418 9.68763 0.0461115 9.02779 0.448118C8.63791 0.686468 8.30699 1.00934 8.05964 1.39271C7.81229 1.77608 7.65487 2.21009 7.59911 2.66245C7.56144 3.12858 7.55261 3.59659 7.57265 4.0638V5.56639C7.57265 6.67777 7.57265 7.78907 7.57265 8.90027C7.57265 10.0983 7.57309 11.2963 7.57397 12.4943C7.57609 13.3065 8.84603 13.3078 8.84576 12.4922Z" fill="var(--fill-0, #211715)"/>
<path id="Vector_2" d="M64.2113 47.0698H7.19976C6.42986 47.0698 5.65784 47.0532 4.88821 47.0698C4.85513 47.0698 4.82206 47.0698 4.78926 47.0698C3.972 47.0698 3.97067 48.3352 4.78926 48.3352H61.8016C62.5715 48.3352 63.3435 48.352 64.1131 48.3352C64.1462 48.3352 64.179 48.3352 64.2121 48.3352C65.0291 48.3352 65.0304 47.0698 64.2121 47.0698H64.2113Z" fill="var(--fill-0, #211715)"/>
<path id="Vector_3" d="M59.14 38.3454C58.5339 37.2401 57.9281 36.1346 57.3224 35.0289C57.2664 34.9335 57.1863 34.8545 57.0902 34.7995C56.994 34.7446 56.8851 34.7157 56.7742 34.7157H18.743C16.9862 34.7157 15.2218 34.6683 13.4653 34.7157C13.4389 34.7157 13.4145 34.7157 13.3891 34.7157C13.2782 34.7154 13.1692 34.7442 13.0729 34.7992C12.9767 34.8541 12.8967 34.9334 12.8409 35.0289C11.607 37.3544 10.3804 39.6837 9.1343 42.003C9.08 42.0994 9.05174 42.2082 9.05228 42.3188C9.05282 42.4294 9.08214 42.5379 9.13738 42.6339C9.19261 42.7298 9.27188 42.8098 9.36742 42.866C9.46296 42.9223 9.57152 42.9529 9.68249 42.9549H58.5201C59.1834 42.9549 59.8488 42.9712 60.5118 42.9549C60.5401 42.9549 60.5687 42.9549 60.597 42.9549C60.708 42.9529 60.8166 42.9224 60.9121 42.8661C61.0077 42.8099 61.087 42.7299 61.1423 42.634C61.1975 42.538 61.2269 42.4295 61.2274 42.3189C61.228 42.2083 61.1997 42.0994 61.1454 42.003C60.4775 40.7835 59.809 39.5643 59.14 38.3454C58.7479 37.6305 57.651 38.2684 58.0433 38.9838C58.7118 40.2031 59.3803 41.4224 60.0488 42.6417L60.597 41.6895H11.7594C11.0998 41.6895 10.4267 41.651 9.76768 41.6895C9.73937 41.6911 9.7108 41.6895 9.68249 41.6895L10.2307 42.6417C11.4768 40.3219 12.7036 37.9932 13.9376 35.6676L13.3891 35.981H54.9958C55.5593 35.981 56.1353 36.0156 56.698 35.981C56.7231 35.9795 56.7488 35.981 56.7742 35.981L56.2257 35.6676C56.8311 36.7734 57.4369 37.8788 58.0433 38.9838C58.4354 39.6998 59.5323 39.0608 59.14 38.3454Z" fill="var(--fill-0, #211715)"/>
<path id="Vector_4" d="M25.2202 47.8701C25.5731 46.1335 25.961 44.4034 26.3496 42.6744C26.3906 42.5127 26.3673 42.3415 26.2847 42.1965C26.202 42.0515 26.0663 41.9439 25.906 41.8962C25.7436 41.8534 25.571 41.8757 25.425 41.9583C25.279 42.0409 25.1713 42.1772 25.1249 42.338C24.7366 44.067 24.3487 45.7971 23.9955 47.5338C23.9549 47.6954 23.9784 47.8665 24.061 48.0114C24.1436 48.1562 24.279 48.2639 24.4392 48.312C24.6015 48.3549 24.7743 48.3327 24.9203 48.2501C25.0664 48.1675 25.174 48.031 25.2202 47.8701Z" fill="var(--fill-0, #211715)"/>
<path id="Vector_5" d="M42.762 42.6744C43.1504 44.4037 43.5348 46.1343 43.8912 47.8701C43.936 48.032 44.0434 48.1694 44.1899 48.2523C44.3364 48.3352 44.5099 48.3567 44.6723 48.3121C44.8347 48.2675 44.9727 48.1604 45.0559 48.0145C45.1391 47.8685 45.1607 47.6956 45.1159 47.5338C44.7595 45.7979 44.3751 44.0673 43.9864 42.338C43.9417 42.1762 43.8342 42.0388 43.6878 41.9559C43.5413 41.8731 43.3678 41.8516 43.2054 41.8962C43.0431 41.9408 42.9051 42.0478 42.822 42.1938C42.7388 42.3397 42.7172 42.5126 42.762 42.6744Z" fill="var(--fill-0, #211715)"/>
<path id="Vector_6" d="M53.2316 3.29514L45.4916 3.29777L36.2877 3.30094L26.869 3.30436L18.484 3.307L12.4044 3.30884H11.8546C11.6869 3.31116 11.5268 3.37856 11.4082 3.49671C11.2896 3.61486 11.222 3.77444 11.2196 3.94151C11.2212 8.02098 11.2231 12.1003 11.2252 16.1794C11.2277 20.439 11.2298 24.6988 11.2315 28.9587C11.2315 30.016 11.2315 31.0734 11.2315 32.131C11.234 32.298 11.3017 32.4575 11.4202 32.5757C11.5388 32.6938 11.6989 32.7612 11.8665 32.7637L18.7239 32.761L28.4895 32.7573L39.3832 32.7534L49.3292 32.7497L56.552 32.7473H57.1472C57.3149 32.7449 57.475 32.6774 57.5935 32.5593C57.7121 32.4412 57.7798 32.2817 57.7822 32.1147L57.7775 20.8669C57.7757 17.034 57.774 13.2011 57.7724 9.3682L57.77 3.92622C57.7677 3.75917 57.7 3.59963 57.5814 3.48149C57.4629 3.36336 57.3027 3.29594 57.1351 3.29355L53.2316 3.29514C52.4146 3.29514 52.4133 4.56047 53.2316 4.56047H57.1343L56.4993 3.9278C56.5007 7.34824 56.5022 10.7687 56.5038 14.1891C56.5054 18.1132 56.5071 22.0373 56.5088 25.9612C56.5088 28.013 56.5097 30.0646 56.5115 32.1162L57.1464 31.4836L50.3999 31.4857L40.6917 31.4891L29.8012 31.4931L19.8047 31.4968L12.4779 31.4997H11.8668L12.5018 32.1323C12.4988 29.2463 12.4978 26.3603 12.4988 23.4743L12.4925 10.7071C12.4914 8.45233 12.4905 6.19758 12.4896 3.94283L11.8546 4.57549L17.5939 4.5718L25.7673 4.5689L35.127 4.56574L44.424 4.56231L52.3757 4.55968H53.2329C54.0489 4.56047 54.0502 3.29514 53.2316 3.29514Z" fill="var(--fill-0, #211715)"/>
</g>
<defs>
<clipPath id="clip0_0_42">
<rect width="69" height="51" fill="white"/>
</clipPath>
</defs>
</svg>
