<svg preserveAspectRatio="none" width="100%" height="100%" overflow="visible" style="display: block;" viewBox="0 0 48 40" fill="none" xmlns="http://www.w3.org/2000/svg">
<g id="17567_color 1" clip-path="url(#clip0_0_50)">
<path id="Vector" d="M41.8627 37.4621L43.3423 38.9295C42.954 39.1703 42.5078 39.3036 42.0501 39.3156C40.6468 39.3455 39.2653 38.1397 39.1294 36.7545C39.0814 36.1704 39.2248 35.5866 39.5381 35.0898L35.801 31.3839C35.3001 31.6947 34.7114 31.8368 34.1224 31.7892C32.7255 31.6545 31.5095 30.2845 31.5395 28.893C31.5518 28.439 31.6863 27.9966 31.9291 27.6116L33.4089 29.0787L35.2367 27.2663L33.757 25.799C34.1453 25.5582 34.5915 25.4249 35.0494 25.4127C36.4527 25.3828 37.8341 26.5886 37.97 27.974C38.018 28.5581 37.8747 29.1419 37.5613 29.6387L41.2984 33.3446C41.7993 33.0338 42.3881 32.8917 42.977 32.9393C44.3741 33.074 45.59 34.4438 45.5599 35.8355C45.5476 36.2895 45.4131 36.7319 45.1702 37.1169L43.6904 35.6495L41.8627 37.4621Z" fill="var(--fill-0, #FEBE69)"/>
<path id="Vector_2" d="M41.6248 37.698L43.1043 39.1655L43.1725 38.6414C42.6897 38.9422 42.1088 39.0475 41.5499 38.9356C41.0558 38.8247 40.6026 38.5795 40.2412 38.2275C39.8748 37.8843 39.6175 37.4423 39.501 36.9561C39.3886 36.3694 39.5058 35.7623 39.8288 35.2582C39.8653 35.1943 39.8799 35.1203 39.8704 35.0474C39.861 34.9745 39.8279 34.9066 39.7762 34.8539L36.039 31.148C35.9858 31.0968 35.9174 31.064 35.8439 31.0546C35.7704 31.0452 35.6958 31.0597 35.6312 31.0958C35.123 31.4161 34.5107 31.5323 33.9191 31.4208C33.4287 31.3053 32.9831 31.0502 32.637 30.6869C32.282 30.3285 32.0347 29.879 31.9229 29.3889C31.8101 28.8347 31.9163 28.2587 32.2196 27.7799L31.6911 27.8475L33.1709 29.3147C33.2347 29.3761 33.32 29.4104 33.4089 29.4104C33.4977 29.4104 33.5831 29.3761 33.6468 29.3147L35.4746 27.5027C35.5365 27.4395 35.5711 27.3548 35.5711 27.2667C35.5711 27.1786 35.5365 27.094 35.4746 27.0308L33.9951 25.5635L33.9269 26.0876C34.4097 25.7868 34.9906 25.6814 35.5495 25.7933C36.0437 25.9042 36.4969 26.1494 36.8584 26.5014C37.2248 26.8447 37.482 27.2866 37.5986 27.7728C37.711 28.3595 37.5938 28.9666 37.2708 29.4706C37.2342 29.5346 37.2196 29.6086 37.2291 29.6815C37.2386 29.7544 37.2717 29.8223 37.3233 29.875L41.0604 33.5809C41.1136 33.6321 41.1821 33.6649 41.2556 33.6743C41.3291 33.6837 41.4038 33.6692 41.4683 33.6331C41.9765 33.3127 42.5887 33.1965 43.1803 33.308C43.6707 33.4236 44.1163 33.6787 44.4624 34.042C44.8174 34.4005 45.0647 34.8499 45.1765 35.34C45.2894 35.8942 45.1831 36.4703 44.8797 36.949L45.4083 36.8814L43.9288 35.4134C43.865 35.3521 43.7797 35.3178 43.6908 35.3178C43.602 35.3178 43.5167 35.3521 43.4529 35.4134L41.6249 37.2261C41.3183 37.5302 41.794 38.0022 42.1008 37.698L43.9288 35.8854H43.452L44.9316 37.3528C44.9683 37.3882 45.0127 37.4149 45.0613 37.4309C45.1099 37.447 45.1615 37.4519 45.2123 37.4454C45.2631 37.4389 45.3118 37.4212 45.3547 37.3934C45.3976 37.3657 45.4337 37.3287 45.4602 37.2852C45.7371 36.8275 45.8836 36.3038 45.8841 35.77C45.8845 35.2362 45.7389 34.7122 45.4627 34.2541C45.2136 33.8161 44.8666 33.4405 44.4484 33.1561C44.0302 32.8717 43.5518 32.686 43.0501 32.6133C42.3777 32.5475 41.7023 32.703 41.1279 33.0556L41.5356 33.1079L37.7985 29.402L37.8511 29.8063C38.1432 29.3406 38.3 28.804 38.3041 28.2555C38.3082 27.7071 38.1595 27.1682 37.8744 26.6982C37.6102 26.2678 37.2529 25.901 36.8282 25.6245C36.4035 25.3479 35.9221 25.1685 35.4188 25.0992C34.7789 25.0304 34.1341 25.1752 33.5865 25.5106C33.5427 25.5369 33.5054 25.5726 33.4774 25.6152C33.4494 25.6578 33.4315 25.706 33.4249 25.7564C33.4184 25.8068 33.4234 25.858 33.4395 25.9062C33.4557 25.9544 33.4827 25.9984 33.5184 26.0348L34.9987 27.5027V27.0299L33.1709 28.8426H33.6468L32.167 27.3755C32.1303 27.3401 32.0859 27.3133 32.0373 27.2973C31.9887 27.2813 31.9371 27.2763 31.8863 27.2828C31.8355 27.2893 31.7869 27.3071 31.7439 27.3348C31.701 27.3626 31.665 27.3996 31.6385 27.443C31.3617 27.9006 31.2153 28.4241 31.2149 28.9578C31.2144 29.4914 31.36 30.0151 31.636 30.4732C31.8852 30.9112 32.2322 31.2867 32.6504 31.5711C33.0686 31.8555 33.5469 32.0412 34.0487 32.1139C34.721 32.1797 35.3965 32.0243 35.9708 31.6715L35.5631 31.6193L39.3002 35.3252L39.2476 34.9209C38.9555 35.3866 38.7988 35.9233 38.7946 36.4717C38.7905 37.0202 38.9392 37.5591 39.2243 38.0291C39.4885 38.4595 39.8458 38.8262 40.2705 39.1028C40.6952 39.3793 41.1766 39.5587 41.6799 39.6281C42.3198 39.6969 42.9645 39.5521 43.5121 39.2166C43.5559 39.1904 43.5932 39.1546 43.6212 39.1121C43.6492 39.0695 43.6671 39.0213 43.6737 38.9709C43.6802 38.9205 43.6752 38.8693 43.659 38.8211C43.6428 38.773 43.6159 38.729 43.5802 38.6926L42.1007 37.2251C41.794 36.922 41.318 37.3938 41.6248 37.698Z" fill="var(--fill-0, #211715)"/>
<path id="Vector_3" d="M16.8357 33.7814V30.9469H15.1755C15.043 30.3852 14.8292 29.8454 14.5408 29.3444C14.9435 28.945 15.4048 28.4877 15.6905 28.2043L13.6691 26.2003L12.5346 27.3251C12.026 27.0376 11.476 26.829 10.9037 26.7067V25.0643H8.04529V26.7278C7.47986 26.8555 6.93513 27.0607 6.42681 27.3375C6.03029 26.9443 5.55749 26.4761 5.28001 26.2003L3.25869 28.2046C3.538 28.4814 3.98892 28.9286 4.38278 29.3193C4.09237 29.8271 3.88209 30.376 3.75925 30.9469H2.11329V33.7814H3.77538C3.90241 34.3476 4.1092 34.8932 4.38965 35.4021L3.25869 36.5236L5.28001 38.528L6.39007 37.427C6.9062 37.7149 7.46476 37.9206 8.04529 38.0364V39.6632H10.9037V37.9669C11.4422 37.8145 11.9583 37.5928 12.4387 37.3076L13.6691 38.5277L15.6898 36.5236L14.5028 35.3465C14.8032 34.8618 15.0262 34.3338 15.1638 33.7814H16.8357Z" fill="var(--fill-0, #C6C6C6)"/>
<path id="Vector_4" d="M9.36021 30.1535C9.66514 30.1276 9.97218 30.1645 10.262 30.2621C10.5518 30.3597 10.8181 30.5157 11.044 30.7204C11.8517 31.4878 11.945 32.9393 11.2343 33.7958C10.4697 34.7173 8.89456 34.8503 7.99075 34.063C7.08693 33.2757 6.97406 31.8209 7.77271 30.9389C8.18268 30.4874 8.74993 30.2068 9.36021 30.1535Z" fill="var(--fill-0, white)"/>
<path id="Vector_5" d="M9.36021 30.4872C9.81965 30.4499 10.278 30.5712 10.6576 30.8305C10.9628 31.0637 11.1833 31.3889 11.2858 31.7571C11.4997 32.4765 11.3441 33.3244 10.7406 33.815C10.4486 34.0388 10.1023 34.1821 9.73649 34.2305C9.37071 34.279 8.99853 34.2307 8.6576 34.0907C7.95289 33.7899 7.55356 33.0467 7.57445 32.3036C7.59977 31.8376 7.79474 31.3967 8.12317 31.0625C8.4516 30.7284 8.89116 30.5238 9.36021 30.4868C9.44881 30.4848 9.5332 30.449 9.59587 30.3868C9.65853 30.3247 9.69465 30.241 9.69672 30.1531C9.69602 30.0648 9.66034 29.9804 9.59739 29.9179C9.53443 29.8555 9.44924 29.8201 9.36021 29.8194C8.2364 29.8978 7.18985 30.7104 6.9592 31.8236C6.85027 32.3276 6.89463 32.8523 7.08665 33.3313C7.27867 33.8102 7.60971 34.2219 8.03786 34.5142C8.86778 35.0538 10.0289 35.0321 10.8716 34.5337C11.7946 33.9879 12.1704 32.9244 12.0073 31.9009C11.9237 31.3442 11.6535 30.8316 11.2403 30.4457C10.7214 29.9993 10.0456 29.7744 9.36021 29.82C8.92877 29.8393 8.92639 30.5067 9.36021 30.4872Z" fill="var(--fill-0, #211715)"/>
<path id="Vector_6" d="M17.1722 33.5331V31.7506C17.1722 31.5281 17.2109 31.2593 17.1503 31.0415C17.0209 30.5737 16.5488 30.6139 16.1676 30.6139H15.1755L15.5001 30.8589C15.3572 30.27 15.1321 29.7037 14.8313 29.1765L14.7787 29.5808C14.9973 29.364 15.2159 29.1472 15.4347 28.9304C15.6408 28.7258 15.924 28.5226 15.9236 28.2044C15.9232 27.8863 15.6384 27.6816 15.4328 27.4775L14.8215 26.8713L14.2918 26.346C14.114 26.1697 13.9448 25.9688 13.6692 25.9688C13.3517 25.9688 13.1475 26.2469 12.9431 26.4489L12.2967 27.0892L12.7044 27.037C12.1697 26.7374 11.5933 26.5176 10.9938 26.3849L11.2409 26.7067V25.4322C11.2409 25.0903 11.0854 24.7685 10.699 24.7346C10.5812 24.7243 10.4606 24.7306 10.343 24.7306H8.73878C8.59506 24.7306 8.45008 24.7249 8.30651 24.7306C8.226 24.7315 8.14649 24.7483 8.07263 24.78C7.99876 24.8118 7.93204 24.8579 7.87636 24.9155C7.82069 24.9732 7.77719 25.0413 7.74841 25.1159C7.71963 25.1904 7.70616 25.27 7.70878 25.3497C7.69756 25.8086 7.70878 26.2688 7.70878 26.7278L7.95583 26.4061C7.36298 26.544 6.79153 26.7604 6.25687 27.0494L6.66475 27.1015L6.01192 26.4542C5.80623 26.2502 5.60067 25.9689 5.28029 25.9686C5.00323 25.9686 4.83609 26.1684 4.65746 26.3456L4.14736 26.8515L3.55735 27.4365C3.35446 27.6377 3.05258 27.8503 3.03015 28.1569C3.00617 28.4892 3.26388 28.6816 3.47883 28.8938C3.70111 29.1141 3.92326 29.3343 4.14526 29.5547L4.09268 29.1502C3.78998 29.6842 3.56844 30.2595 3.43522 30.8577L3.75967 30.6127H2.47715C2.13418 30.6127 1.8145 30.7717 1.78085 31.1499C1.76963 31.2751 1.77678 31.4026 1.77678 31.5278V33.0932C1.77678 33.2357 1.77103 33.3795 1.77678 33.5219C1.77767 33.6018 1.79465 33.6807 1.82673 33.754C1.85881 33.8273 1.90534 33.8935 1.96358 33.9487C2.02183 34.0039 2.09061 34.0471 2.1659 34.0755C2.24119 34.104 2.32146 34.1173 2.40199 34.1146C2.85937 34.1245 3.31786 34.1146 3.77538 34.1146L3.45093 33.8709C3.58825 34.4642 3.80632 35.0362 4.09913 35.5712L4.15171 35.1669C3.92737 35.3893 3.70303 35.6118 3.47869 35.8343C3.26598 36.0452 3.00603 36.2415 3.02916 36.5712C3.04669 36.8204 3.23948 36.9769 3.40494 37.1413L3.9348 37.6666L4.54613 38.2728C4.74075 38.4659 4.93522 38.734 5.23163 38.755C5.5631 38.7785 5.75799 38.526 5.96985 38.3159L6.62773 37.6634L6.21999 37.7155C6.76245 38.0156 7.34761 38.2324 7.95555 38.3586L7.7085 38.0369V39.3138C7.7085 39.6735 7.90003 39.9798 8.29529 39.9979C8.40746 40.0031 8.51963 39.9979 8.6318 39.9979H10.2379C10.3739 39.9979 10.5112 40.0033 10.6472 39.9979C10.7283 39.9962 10.8083 39.9784 10.8823 39.9455C10.9564 39.9126 11.023 39.8653 11.0783 39.8064C11.1336 39.7476 11.1764 39.6783 11.2042 39.6027C11.232 39.5271 11.2443 39.4467 11.2402 39.3664C11.2496 38.9004 11.2402 38.4335 11.2402 37.9676L10.9927 38.2889C11.5584 38.1263 12.1012 37.8935 12.6081 37.5961L12.2004 37.5438C12.4202 37.7619 12.6399 37.9798 12.8594 38.1973C13.0481 38.3845 13.2594 38.6805 13.5313 38.7424C13.9006 38.8258 14.1283 38.5426 14.3608 38.3122L14.993 37.6851L15.5426 37.1402C15.7291 36.9551 15.9288 36.7859 15.9205 36.4993C15.9114 36.1829 15.6059 35.9685 15.399 35.7634L14.74 35.1099L14.7926 35.5143C15.1054 35.0033 15.3396 34.4489 15.4875 33.8695L15.1631 34.1145H16.1305C16.2741 34.1145 16.4185 34.1192 16.562 34.1145C16.72 34.1154 16.8722 34.0551 16.986 33.9463C17.0998 33.8376 17.1663 33.6891 17.1712 33.5324C17.1705 33.4441 17.1348 33.3597 17.0719 33.2972C17.0089 33.2348 16.9237 33.1994 16.8347 33.1987C16.746 33.2005 16.6614 33.2362 16.5987 33.2984C16.536 33.3606 16.5 33.4445 16.4982 33.5324C16.505 33.4566 16.6147 33.4598 16.5572 33.447C16.511 33.4424 16.4645 33.4424 16.4183 33.447H15.1632C15.0898 33.448 15.0186 33.4723 14.9601 33.5164C14.9017 33.5605 14.8591 33.6221 14.8386 33.692C14.7062 34.2156 14.4952 34.7165 14.2127 35.1779C14.1761 35.2418 14.1614 35.3158 14.1708 35.3887C14.1803 35.4617 14.2135 35.5296 14.2653 35.5822L14.7981 36.1106L15.0478 36.3582C15.0773 36.3874 15.2419 36.5887 15.2764 36.5848C15.1685 36.5968 15.3662 36.4095 15.2426 36.496C15.2154 36.5187 15.1902 36.5437 15.1673 36.5706L14.9743 36.762L14.5185 37.2139L14.009 37.7191L13.7653 37.9608C13.7222 37.9962 13.6826 38.0355 13.6469 38.0782C13.5887 38.126 13.5963 38.1306 13.6698 38.0921C13.7343 38.1279 13.7488 38.1305 13.7133 38.0997C13.6402 38.006 13.5554 37.9219 13.4609 37.8494L13.2085 37.5991L12.6757 37.0708C12.6225 37.0196 12.554 36.9869 12.4805 36.9775C12.407 36.9681 12.3324 36.9825 12.2678 37.0186C11.8117 37.2875 11.3229 37.4978 10.8132 37.6443C10.7428 37.6648 10.6808 37.707 10.6364 37.7649C10.5919 37.8228 10.5673 37.8933 10.5662 37.9661V39.1274C10.5622 39.2065 10.5622 39.2857 10.5662 39.3649C10.5662 39.3706 10.561 39.4055 10.5662 39.4102C10.5471 39.3929 10.6321 39.3035 10.6503 39.329C10.6286 39.2992 10.3528 39.329 10.3159 39.329H8.85572C8.69125 39.329 8.52468 39.3218 8.36035 39.329C8.27384 39.3329 8.32277 39.3116 8.33918 39.3407C8.39105 39.4333 8.38124 39.416 8.38124 39.3306V38.0353C8.38055 37.9624 8.35612 37.8917 8.3116 37.8337C8.26708 37.7757 8.20485 37.7335 8.13418 37.7134C7.58284 37.602 7.05184 37.4079 6.55945 37.1378C6.49485 37.1018 6.42028 37.0875 6.3468 37.0969C6.27332 37.1063 6.20486 37.1389 6.15157 37.1899L5.62156 37.7155L5.37072 37.9644L5.27342 38.0608L5.21733 38.1164C5.22787 38.1027 5.24337 38.0936 5.26056 38.091C5.27774 38.0884 5.29528 38.0925 5.30945 38.1025C5.3546 38.1252 5.35198 38.1165 5.3016 38.0765L5.24271 38.0182L5.12311 37.8995L4.89877 37.677L4.41096 37.194L3.99145 36.778L3.82319 36.6111C3.80384 36.5921 3.697 36.4601 3.67274 36.4619C3.77776 36.4536 3.58861 36.6427 3.71046 36.5477C3.75223 36.5108 3.7918 36.4715 3.82894 36.4301L4.08637 36.1748L4.62703 35.6381C4.67848 35.5853 4.71139 35.5174 4.72088 35.4446C4.73038 35.3717 4.71596 35.2978 4.67975 35.2337C4.41635 34.7487 4.22105 34.2302 4.09927 33.6927C4.07907 33.6227 4.03656 33.5609 3.97809 33.5168C3.91961 33.4726 3.84831 33.4484 3.77482 33.4477H2.60404C2.53678 33.4429 2.46925 33.4429 2.40199 33.4477C2.28982 33.4644 2.51598 33.4756 2.4498 33.5271C2.48345 33.501 2.4498 33.2172 2.4498 33.1744V31.7356C2.4498 31.5741 2.45976 31.4088 2.4498 31.2475C2.44476 31.1659 2.46705 31.2228 2.43803 31.2382C2.32515 31.2987 2.38194 31.2806 2.46705 31.2806H3.75925C3.83274 31.2799 3.90402 31.2556 3.9625 31.2115C4.02098 31.1673 4.06354 31.1057 4.08385 31.0356C4.20191 30.4935 4.40062 29.9718 4.67344 29.4877C4.70972 29.4236 4.72418 29.3497 4.71468 29.2768C4.70518 29.204 4.67223 29.1361 4.62072 29.0833L4.08483 28.5519L3.82894 28.298C3.79167 28.2567 3.75207 28.2174 3.71032 28.1805C3.58777 28.0851 3.77356 28.281 3.67372 28.2651C3.70611 28.2702 3.88152 28.059 3.91096 28.0297L4.13601 27.8072L4.62325 27.3242L5.03968 26.9112L5.21929 26.7331C5.24453 26.7079 5.27229 26.6833 5.29613 26.6568C5.34787 26.599 5.35937 26.6306 5.28029 26.6367C5.21541 26.6014 5.20097 26.5992 5.23696 26.6302L5.29305 26.6858L5.41139 26.8032L5.66531 27.055L6.18901 27.5742C6.24229 27.6251 6.31073 27.6578 6.38417 27.6671C6.45762 27.6765 6.53216 27.6622 6.59675 27.6263C7.08094 27.3664 7.59834 27.1727 8.13489 27.0504C8.20553 27.0303 8.26773 26.9881 8.31225 26.9301C8.35676 26.8721 8.3812 26.8014 8.38194 26.7285V25.5744C8.38727 25.5 8.38727 25.4252 8.38194 25.3507C8.36554 25.2427 8.36497 25.462 8.3002 25.399C8.31197 25.4104 8.38517 25.399 8.40283 25.399H10.1234C10.2813 25.399 10.4428 25.4086 10.6001 25.399C10.6753 25.3945 10.649 25.3998 10.5785 25.3573C10.5203 25.3218 10.5816 25.2972 10.5667 25.3314C10.5623 25.359 10.5623 25.3872 10.5667 25.4148V26.7088C10.5675 26.7816 10.592 26.8523 10.6365 26.9103C10.681 26.9683 10.7432 27.0105 10.8138 27.0306C11.3571 27.1477 11.8798 27.3443 12.3647 27.6139C12.4293 27.6499 12.5039 27.6643 12.5774 27.6549C12.6509 27.6454 12.7193 27.6127 12.7726 27.5616C12.9455 27.3902 13.1184 27.2187 13.2914 27.0472L13.5414 26.7993L13.6579 26.6839L13.713 26.6291C13.7487 26.5983 13.734 26.6007 13.669 26.6363C13.5899 26.6309 13.6008 26.5986 13.6528 26.6566C13.6765 26.6832 13.7044 26.7078 13.7297 26.7329L13.9093 26.9111L14.3453 27.3433L14.8336 27.8275L15.0782 28.0703L15.1976 28.1884L15.2367 28.2272C15.2847 28.2851 15.2894 28.2775 15.2507 28.2046L15.2765 28.1437L15.2018 28.2176L15.0834 28.3351L14.8515 28.565L14.3029 29.109C14.2514 29.1618 14.2184 29.2297 14.2089 29.3026C14.1995 29.3754 14.214 29.4494 14.2503 29.5134C14.5215 29.9906 14.7238 30.5032 14.8512 31.0362C14.8715 31.1062 14.914 31.1679 14.9725 31.212C15.031 31.2562 15.1022 31.2804 15.1757 31.2812H16.4206C16.4665 31.2858 16.5127 31.2858 16.5586 31.2812C16.6514 31.2605 16.4239 31.2517 16.4993 31.1961C16.4843 31.2071 16.4993 31.3457 16.4993 31.3629V33.534C16.4992 33.9626 17.1722 33.9633 17.1722 33.5331Z" fill="var(--fill-0, #211715)"/>
<path id="Vector_7" d="M36.7866 12.1663V14.4744H40.3113V14.0604C40.3113 14.0604 40.3113 13.3374 40.3113 12.4649C40.3113 12.3676 40.3113 12.2671 40.3113 12.1665L36.7866 12.1663Z" fill="var(--fill-0, white)"/>
<path id="Vector_8" d="M36.4501 11.763V14.0253C36.4501 14.1138 36.4855 14.1986 36.5486 14.2612C36.6118 14.3238 36.6973 14.359 36.7866 14.359C36.8758 14.359 36.9614 14.3238 37.0245 14.2612C37.0877 14.1986 37.1231 14.1138 37.1231 14.0253V11.763C37.1231 11.6745 37.0877 11.5896 37.0245 11.5271C36.9614 11.4645 36.8758 11.4293 36.7866 11.4293C36.6973 11.4293 36.6118 11.4645 36.5486 11.5271C36.4855 11.5896 36.4501 11.6745 36.4501 11.763Z" fill="var(--fill-0, #211715)"/>
<path id="Vector_9" d="M39.9748 11.763V14.0602C39.9748 14.1487 40.0102 14.2335 40.0733 14.2961C40.1364 14.3587 40.222 14.3939 40.3113 14.3939C40.4005 14.3939 40.4861 14.3587 40.5492 14.2961C40.6123 14.2335 40.6478 14.1487 40.6478 14.0602V11.763C40.6478 11.6745 40.6123 11.5896 40.5492 11.5271C40.4861 11.4645 40.4005 11.4293 40.3113 11.4293C40.222 11.4293 40.1364 11.4645 40.0733 11.5271C40.0102 11.5896 39.9748 11.6745 39.9748 11.763Z" fill="var(--fill-0, #211715)"/>
<path id="Vector_10" d="M35.2356 14.8081H41.8647C42.2978 14.8081 42.2985 14.1407 41.8647 14.1407H35.2356C34.8024 14.1407 34.8017 14.8081 35.2356 14.8081Z" fill="var(--fill-0, #211715)"/>
<path id="Vector_11" d="M29.8999 12.1663H47.2013C47.2622 12.1663 47.3225 12.1543 47.3787 12.1312C47.4349 12.1081 47.486 12.0742 47.529 12.0314C47.572 11.9887 47.606 11.938 47.6292 11.8821C47.6524 11.8263 47.6642 11.7665 47.6641 11.7062C47.6631 8.07251 47.6627 4.43922 47.6629 0.80631C47.6629 0.745914 47.651 0.686107 47.6277 0.630304C47.6044 0.5745 47.5702 0.523794 47.5272 0.481082C47.4841 0.438369 47.433 0.404487 47.3767 0.38137C47.3205 0.358254 47.2601 0.346356 47.1992 0.346356H29.8996C29.8387 0.346374 29.7784 0.358289 29.7221 0.381421C29.6659 0.404553 29.6147 0.438448 29.5717 0.481172C29.5286 0.523895 29.4945 0.57461 29.4712 0.630421C29.4479 0.686233 29.4359 0.746047 29.4359 0.806449V11.7074C29.4363 11.8292 29.4853 11.9459 29.5723 12.0319C29.6592 12.118 29.7771 12.1663 29.8999 12.1663Z" fill="var(--fill-0, white)"/>
<path id="Vector_12" d="M29.8999 12.5H46.99C47.3479 12.5 47.6865 12.4482 47.8874 12.1129C47.9824 11.9224 48.0216 11.7093 48.0004 11.4979C48.0004 11.2434 48.0004 10.9889 48.0004 10.7343C48.0004 8.74399 48.0004 6.75378 48.0004 4.76361C48.0004 3.76853 48.0004 2.7734 48.0004 1.77822V1.01501C48.0225 0.796116 47.979 0.575628 47.8754 0.381117C47.8011 0.268817 47.6999 0.176458 47.581 0.112249C47.462 0.0480405 47.3289 0.0139713 47.1935 0.01307C46.3421 -0.0164071 45.4842 0.01307 44.6324 0.01307H30.0757C30.0172 0.01307 29.9584 0.0109844 29.9 0.01307C29.7909 0.0159962 29.6834 0.0404275 29.5838 0.0849416C29.4843 0.129456 29.3947 0.193163 29.3202 0.272355C29.2457 0.351547 29.1878 0.44464 29.15 0.546216C29.1121 0.647792 29.095 0.755821 29.0997 0.864013C29.0967 1.31409 29.0997 1.76432 29.0997 2.21454V7.74956C29.0997 9.04933 29.0904 10.3497 29.0997 11.6494C29.0953 11.7576 29.1125 11.8655 29.1504 11.967C29.1884 12.0685 29.2463 12.1615 29.3207 12.2407C29.3952 12.3198 29.4847 12.3836 29.5842 12.4281C29.6837 12.4727 29.7911 12.4973 29.9002 12.5004C30.333 12.5219 30.3319 11.8545 29.9002 11.833C29.7487 11.8253 29.7727 11.6707 29.7727 11.5625V1.31576C29.7727 1.16435 29.7702 1.01265 29.7727 0.861371C29.7743 0.761121 29.7977 0.693546 29.9129 0.680615C30.1735 0.666433 30.4347 0.666433 30.6953 0.680615H46.8975C46.9893 0.680615 47.0831 0.67547 47.175 0.680615C47.1955 0.678727 47.2162 0.681035 47.2358 0.687396C47.2554 0.693758 47.2734 0.704038 47.2888 0.7176C47.3805 0.808534 47.326 1.03337 47.326 1.15406V1.91768C47.326 3.86168 47.326 5.8056 47.326 7.74942C47.326 8.72151 47.326 9.69351 47.326 10.6654C47.326 10.8972 47.326 11.1286 47.326 11.3597C47.326 11.4785 47.3814 11.7101 47.2894 11.8C47.2281 11.8599 47.0976 11.8331 47.0199 11.8331H29.8999C29.4668 11.8326 29.4661 12.5 29.8999 12.5Z" fill="var(--fill-0, #211715)"/>
<path id="Vector_13" d="M42.2304 6.98412V5.56686H41.4003C41.3339 5.28601 41.2268 5.01616 41.0824 4.7657L41.6573 4.19562L40.6467 3.1934L40.0795 3.75597C39.8252 3.61214 39.5502 3.50784 39.264 3.44673V2.62569H37.8351V3.45744C37.5524 3.52119 37.28 3.62378 37.0258 3.76222L36.4525 3.19354L35.4418 4.19576L36.0039 4.75304C35.8587 5.00693 35.7535 5.28138 35.6921 5.56686H34.8692V6.98412H35.7002C35.7637 7.26724 35.8671 7.54008 36.0073 7.79461L35.4418 8.35523L36.4525 9.35745L37.0076 8.80698C37.2655 8.95092 37.5447 9.05372 37.8348 9.11162V9.92544H39.264V9.07728C39.5333 9.00107 39.7913 8.89024 40.0316 8.74761L40.6467 9.35759L41.6573 8.35537L41.0638 7.76694C41.214 7.5245 41.3255 7.26049 41.3943 6.98426L42.2304 6.98412Z" fill="var(--fill-0, #3D8DCC)"/>
<path id="Vector_14" d="M38.4926 5.17017C38.6449 5.15728 38.7983 5.17582 38.9431 5.22461C39.0879 5.2734 39.2209 5.3514 39.3338 5.45368C39.5309 5.65721 39.6487 5.92355 39.6661 6.20518C39.6836 6.48682 39.5995 6.76545 39.4291 6.99136C39.2273 7.2151 38.9467 7.35364 38.645 7.3785C38.3434 7.40335 38.0436 7.31262 37.8073 7.12498C37.5881 6.92967 37.4541 6.6574 37.4337 6.36581C37.4133 6.07423 37.5082 5.78624 37.6983 5.56283C37.9034 5.33696 38.1872 5.19663 38.4926 5.17017Z" fill="var(--fill-0, white)"/>
<path id="Vector_15" d="M38.4926 5.50387C38.5565 5.50109 38.6188 5.50387 38.6831 5.50665C38.7813 5.51194 38.6241 5.48927 38.7185 5.51194C38.7388 5.5168 38.7594 5.52028 38.7797 5.52584C38.81 5.53335 38.8395 5.54406 38.8696 5.55198C38.9599 5.5759 38.8214 5.52292 38.9048 5.56491C38.9615 5.59186 39.0156 5.62388 39.0665 5.66058C39.0132 5.62039 39.0937 5.68755 39.0965 5.69019C39.1154 5.70827 39.1336 5.7269 39.151 5.74581C39.1625 5.75874 39.1737 5.77209 39.1847 5.78558C39.1329 5.72134 39.1854 5.79072 39.1929 5.80254C39.2208 5.84686 39.246 5.89278 39.2684 5.94005C39.2632 5.92948 39.2445 5.87498 39.265 5.9331C39.2766 5.96633 39.2884 5.99942 39.298 6.03335C39.31 6.07604 39.3183 6.11914 39.327 6.16266C39.3442 6.24859 39.3256 6.09161 39.3282 6.17934C39.3291 6.2059 39.3319 6.23232 39.3324 6.25888C39.3333 6.30323 39.3306 6.34717 39.3282 6.39138C39.3233 6.4794 39.3446 6.32186 39.3267 6.40751C39.3194 6.442 39.3127 6.47704 39.304 6.51041C39.2926 6.55212 39.2785 6.59383 39.2629 6.63457C39.2925 6.55671 39.2607 6.63596 39.2535 6.64959C39.2415 6.67267 39.2287 6.69529 39.2149 6.71744C39.2058 6.73204 39.1956 6.74608 39.1869 6.76082C39.1425 6.83146 39.2333 6.71577 39.1755 6.77473C39.1371 6.81408 39.0942 6.85023 39.0562 6.88958C39.023 6.9242 39.1209 6.84967 39.053 6.89083C39.0311 6.90404 39.0109 6.91864 38.9882 6.93171C38.9513 6.95326 38.9131 6.97189 38.8742 6.98983C38.9519 6.95409 38.8742 6.98844 38.8589 6.99358C38.8346 7.00192 38.8099 7.00948 38.7849 7.01624C38.735 7.02974 38.6844 7.04028 38.6332 7.04781C38.7231 7.0339 38.6364 7.04558 38.6192 7.04656C38.5934 7.04822 38.5674 7.04906 38.5415 7.04906C38.4983 7.04906 38.4557 7.0453 38.4125 7.04266C38.5013 7.04808 38.4187 7.04266 38.4 7.03988C38.3748 7.03515 38.3497 7.02959 38.3249 7.0232C38.3083 7.01889 38.2918 7.0143 38.2755 7.00929C38.2593 7.00429 38.1542 6.96229 38.2361 6.99886C38.1972 6.98184 38.1594 6.96252 38.1228 6.94102C38.1008 6.92809 38.0799 6.91321 38.0585 6.89931C37.9884 6.85454 38.1047 6.947 38.046 6.88846C38.014 6.85662 37.9801 6.82728 37.9499 6.7935C37.9403 6.78251 37.8913 6.7123 37.9359 6.77778C37.916 6.74859 37.896 6.71967 37.878 6.68921C37.8685 6.67295 37.8103 6.55017 37.842 6.62734C37.822 6.57885 37.8054 6.52904 37.7923 6.47829C37.7863 6.45465 37.7664 6.3227 37.7757 6.41294C37.7695 6.3568 37.7671 6.30032 37.7684 6.24386C37.7684 6.22217 37.7712 6.20048 37.772 6.17893C37.7762 6.14055 37.7754 6.14431 37.7695 6.19019C37.7723 6.17295 37.7754 6.15599 37.7789 6.13902C37.7894 6.08744 37.8061 6.03891 37.821 5.98886C37.8455 5.90779 37.7874 6.04725 37.8274 5.97231C37.8439 5.9413 37.8592 5.91002 37.8776 5.87999C37.8869 5.86497 37.8969 5.85051 37.9065 5.83563C37.9284 5.80546 37.9268 5.80671 37.9017 5.83911C37.9131 5.8252 37.9247 5.8113 37.9368 5.79837C37.9781 5.75242 38.0233 5.71 38.0718 5.67156C38.0187 5.71327 38.1018 5.65237 38.1057 5.64973C38.1413 5.62665 38.1779 5.60538 38.2155 5.58591C38.2106 5.58841 38.3043 5.5442 38.2616 5.56241C38.2407 5.57075 38.2469 5.56839 38.2801 5.5556C38.2998 5.54851 38.3197 5.54169 38.3397 5.53558C38.3696 5.52654 38.3997 5.51861 38.4303 5.51208C38.4504 5.50777 38.4706 5.50401 38.491 5.50095C38.4521 5.50624 38.4527 5.50703 38.4926 5.50332C38.5818 5.50332 38.6674 5.46816 38.7305 5.40558C38.7936 5.343 38.8291 5.25812 38.8291 5.16961C38.8291 5.08111 38.7936 4.99623 38.7305 4.93365C38.6674 4.87107 38.5818 4.83591 38.4926 4.83591C37.8592 4.88138 37.2601 5.32854 37.1296 5.96216C37.067 6.24818 37.0916 6.54618 37.2003 6.8183C37.3089 7.09041 37.4967 7.32435 37.7398 7.49038C37.9779 7.63569 38.2515 7.71411 38.5311 7.71726C38.8107 7.72042 39.0859 7.6482 39.3274 7.50832C39.8584 7.19839 40.0705 6.59689 39.9801 6.01166C39.9336 5.70492 39.7861 5.42205 39.5606 5.20716C39.4162 5.07834 39.2474 4.97927 39.0641 4.91568C38.8807 4.85209 38.6865 4.82526 38.4926 4.83675C38.4033 4.83675 38.3177 4.8719 38.2546 4.93449C38.1915 4.99707 38.1561 5.08195 38.1561 5.17045C38.1561 5.25895 38.1915 5.34383 38.2546 5.40641C38.3177 5.46899 38.4033 5.50415 38.4926 5.50415V5.50387Z" fill="var(--fill-0, #211715)"/>
<path id="Vector_16" d="M42.5669 6.8601C42.5669 6.48009 42.583 6.09661 42.5669 5.71703C42.5529 5.38332 42.3123 5.23316 42.001 5.23316H41.4003L41.7248 5.47815C41.648 5.17025 41.5298 4.87399 41.3734 4.59731L41.3208 5.00165L41.6758 4.64959C41.7956 4.53085 41.9222 4.41795 41.9365 4.23983C41.9645 3.89848 41.5631 3.63013 41.3421 3.411C41.157 3.22746 40.9328 2.91045 40.6469 2.91045C40.5614 2.91905 40.4785 2.94508 40.4035 2.9869C40.3285 3.02872 40.263 3.08543 40.2112 3.15349L39.8418 3.51987L40.2496 3.46759C39.9689 3.31171 39.6673 3.19626 39.3538 3.12471L39.6008 3.4466C39.6008 3.22788 39.6078 3.00819 39.6008 2.78962C39.6059 2.69201 39.5806 2.5952 39.5283 2.51238C39.4759 2.42956 39.3991 2.36474 39.3083 2.32674C39.2119 2.29668 39.1106 2.28479 39.0097 2.2917H38.1781C38.1064 2.2917 38.0332 2.28726 37.9616 2.2917C37.8398 2.29522 37.724 2.34484 37.6379 2.43037C37.5519 2.51591 37.5021 2.63088 37.4989 2.75166C37.4849 2.98497 37.4989 3.22315 37.4989 3.45716L37.7459 3.13528C37.4359 3.20953 37.1368 3.32334 36.8563 3.47385L37.264 3.52599C37.153 3.41577 37.0418 3.30556 36.9306 3.19534C36.8044 3.07021 36.6865 2.93186 36.4976 2.91726C36.1873 2.89209 35.9753 3.19534 35.7772 3.39195L35.452 3.71439C35.3206 3.81465 35.2222 3.95136 35.1692 4.10719C35.1223 4.32284 35.2471 4.47468 35.3911 4.61734L35.7663 4.98942L35.7135 4.58508C35.5562 4.86514 35.4398 5.16599 35.3679 5.47857L35.6924 5.23357C35.4715 5.23357 35.2492 5.22551 35.0285 5.23357C34.9236 5.22954 34.8203 5.25959 34.7342 5.31915C34.6482 5.37871 34.5841 5.46452 34.5517 5.56352C34.5335 5.65152 34.5273 5.74155 34.5334 5.83118V6.64458C34.5334 6.71577 34.5289 6.78863 34.5334 6.85982C34.5369 6.98111 34.5874 7.09639 34.6743 7.1818C34.7612 7.26721 34.8779 7.31622 35.0003 7.31866C35.2322 7.33187 35.4684 7.31866 35.7013 7.31866L35.3758 7.07283C35.4498 7.38297 35.5645 7.68214 35.7169 7.96271L35.7695 7.55823L35.4118 7.91307C35.2856 8.03821 35.1568 8.16335 35.1568 8.35495C35.1568 8.63985 35.476 8.86079 35.6615 9.04432L35.9874 9.3676C36.1094 9.48843 36.225 9.61885 36.408 9.63373C36.7552 9.66154 37.025 9.2622 37.2461 9.04266L36.8382 9.0948C37.1226 9.25086 37.4285 9.36483 37.7462 9.43309L37.4992 9.11134C37.4992 9.33172 37.4891 9.55447 37.4992 9.77458C37.4963 9.88066 37.5295 9.98461 37.5934 10.0697C37.6574 10.1548 37.7483 10.2161 37.8517 10.2437C37.9381 10.2595 38.0262 10.2646 38.1139 10.2589H38.949C39.0121 10.2589 39.0767 10.2628 39.1397 10.2589C39.2623 10.255 39.3788 10.2045 39.4648 10.1177C39.5508 10.0308 39.5997 9.91448 39.6014 9.79279C39.6139 9.55545 39.6014 9.31448 39.6014 9.07686L39.3538 9.3993C39.6501 9.31263 39.9349 9.19063 40.2016 9.03598L39.7939 8.98384C39.9108 9.09962 40.0277 9.21549 40.1444 9.33145C40.2495 9.46876 40.3933 9.57207 40.5576 9.6283C40.7778 9.67502 40.9278 9.551 41.0718 9.4082L41.4382 9.04488C41.6402 8.84452 41.9624 8.62497 41.9366 8.31115C41.9213 8.12553 41.7824 8.00831 41.6586 7.88471L41.3019 7.53098L41.3545 7.93546C41.517 7.66689 41.6397 7.37657 41.719 7.07339L41.3946 7.31838C41.755 7.31838 42.4742 7.44519 42.5548 6.94936C42.5758 6.86411 42.5632 6.77413 42.5195 6.6978C42.4758 6.62148 42.4044 6.56459 42.3198 6.53877C42.2338 6.51595 42.1421 6.52762 42.0646 6.57125C41.9872 6.61487 41.9301 6.68696 41.9058 6.77195C41.9544 6.47342 42.1939 6.67072 42.0726 6.65098C42.0443 6.64882 42.0158 6.64882 41.9875 6.65098H41.3946C41.3211 6.65196 41.25 6.6763 41.1916 6.7204C41.1332 6.76451 41.0906 6.82606 41.0701 6.89597C41.0062 7.14331 40.9063 7.38009 40.7736 7.59883C40.737 7.66281 40.7223 7.73683 40.7318 7.80977C40.7413 7.8827 40.7744 7.95062 40.8261 8.00331L41.0824 8.25623L41.203 8.3758L41.2607 8.43295C41.3008 8.47884 41.308 8.4825 41.2824 8.44394V8.26652C41.3147 8.22601 41.3194 8.21776 41.2964 8.24177L41.2567 8.28112L41.1643 8.37275L40.9627 8.57269L40.7393 8.79419L40.6165 8.91599C40.5963 8.93601 40.5003 8.99594 40.558 8.98453H40.737C40.7987 8.99621 40.7056 8.94282 40.6826 8.92044L40.5356 8.77555L40.2692 8.51137C40.216 8.4602 40.1476 8.42745 40.0741 8.41803C40.0006 8.40861 39.926 8.42301 39.8615 8.45909C39.6455 8.58529 39.4148 8.68471 39.1744 8.75511C39.104 8.77561 39.042 8.8179 38.9976 8.87582C38.9531 8.93373 38.9285 9.00423 38.9274 9.077C38.9137 9.3078 38.9137 9.53919 38.9274 9.76999C38.9445 9.91014 39.2371 9.61315 39.1181 9.5916C39.0781 9.58819 39.0379 9.58819 38.9979 9.5916H38.1506C38.1029 9.5916 38.0524 9.58715 38.005 9.5916C37.8368 9.60717 38.213 9.64568 38.1712 9.79237C38.1861 9.6693 38.1861 9.5449 38.1712 9.42183V9.11162C38.1705 9.03876 38.146 8.96808 38.1015 8.91011C38.057 8.85214 37.9948 8.80997 37.9241 8.78987C37.663 8.73648 37.4112 8.64516 37.1769 8.51888C37.1124 8.48296 37.0378 8.46863 36.9644 8.47803C36.8909 8.48742 36.8225 8.52003 36.7692 8.57102L36.5259 8.81212L36.4194 8.91793C36.3972 8.9399 36.3022 8.99594 36.3623 8.98453H36.5412C36.5693 9.00136 36.5693 8.99844 36.5428 8.9755L36.4828 8.91599L36.3599 8.79419L36.1366 8.57269L35.9349 8.37275L35.8425 8.28112L35.8153 8.25414C35.7808 8.21706 35.7815 8.22119 35.8173 8.26652V8.44394C35.7991 8.47304 35.8018 8.47388 35.8254 8.44644L35.8871 8.38526L35.9965 8.27667L36.2448 8.03056C36.2962 7.97767 36.3291 7.90979 36.3385 7.83696C36.348 7.76413 36.3337 7.69019 36.2975 7.62609C36.1743 7.39556 36.0824 7.14987 36.0243 6.89542C36.004 6.82539 35.9614 6.76372 35.903 6.71958C35.8445 6.67544 35.7733 6.65118 35.6998 6.65042C35.4712 6.63167 35.2414 6.63167 35.0128 6.65042C34.8967 6.67072 35.1863 6.96619 35.2056 6.8341C35.2081 6.79623 35.2081 6.75823 35.2056 6.72036V5.86761C35.2091 5.82379 35.2091 5.77976 35.2056 5.73594C35.1789 5.57979 35.0639 5.93268 35.0031 5.9007C35.0501 5.9078 35.0979 5.9078 35.1448 5.9007H35.6917C35.7651 5.89996 35.8364 5.87572 35.8949 5.83158C35.9533 5.78743 35.9959 5.72575 36.0161 5.65571C36.0728 5.39909 36.1664 5.15189 36.294 4.9217C36.3303 4.85763 36.3447 4.78369 36.3352 4.71083C36.3258 4.63798 36.2929 4.57009 36.2414 4.51723L35.9957 4.27362L35.887 4.16572C35.8654 4.14431 35.8062 4.04851 35.8169 4.10691V4.28433C35.7999 4.31214 35.8029 4.31214 35.826 4.28586L35.886 4.22649L36.0088 4.10469L36.2322 3.88305L36.4338 3.68311L36.5262 3.59148L36.5534 3.5645C36.5906 3.5303 36.5865 3.53086 36.5411 3.56659H36.3622C36.3313 3.54629 36.3292 3.54768 36.356 3.57104L36.4135 3.62805L36.536 3.74957L36.7869 3.99832C36.8402 4.04928 36.9087 4.08187 36.9821 4.09126C37.0556 4.10065 37.1301 4.08635 37.1948 4.05046C37.4248 3.92888 37.6699 3.83773 37.9239 3.77932C37.9945 3.75921 38.0567 3.71704 38.1012 3.65907C38.1457 3.6011 38.1701 3.53044 38.1709 3.45758V3.15474C38.1894 3.0266 38.1894 2.89649 38.1709 2.76834C38.136 2.67519 38.0167 2.99832 37.9606 2.95939C37.9668 2.96356 37.984 2.95703 37.991 2.95939C38.0353 2.96524 38.0801 2.96524 38.1244 2.95939H38.9731C39.0175 2.96286 39.062 2.96286 39.1064 2.95939C39.2466 2.93603 38.9449 2.67004 38.9268 2.76807C38.9159 2.89474 38.9159 3.02209 38.9268 3.14877V3.44687C38.9278 3.51984 38.9526 3.59052 38.9974 3.64839C39.0423 3.70627 39.1047 3.74824 39.1755 3.76806C39.4327 3.82441 39.6803 3.91723 39.9107 4.04365C39.9753 4.07959 40.0498 4.09393 40.1233 4.08453C40.1967 4.07514 40.2651 4.04252 40.3184 3.9915L40.567 3.74484L40.6877 3.62527C40.712 3.60121 40.8019 3.5531 40.7371 3.56562H40.5582C40.5045 3.55519 40.523 3.54128 40.5729 3.59078L40.6653 3.68241L40.8669 3.88236L41.0903 4.10399L41.2131 4.22579C41.2333 4.24567 41.2937 4.34106 41.2822 4.28363V4.10677C41.303 4.07646 41.3016 4.07451 41.2779 4.10093L41.2206 4.15794L41.0981 4.27932L40.8458 4.5296C40.7943 4.5824 40.7613 4.65026 40.7518 4.72311C40.7423 4.79595 40.7568 4.86989 40.793 4.93394C40.9201 5.16056 41.0155 5.40328 41.0766 5.65543C41.0969 5.72546 41.1394 5.78712 41.1979 5.83126C41.2564 5.87539 41.3277 5.89965 41.4011 5.90042H41.9027C41.9695 5.90814 42.037 5.90814 42.1038 5.90042C41.6025 6.03516 41.9215 5.56908 41.8947 5.72245C41.892 5.75484 41.892 5.78739 41.8947 5.81978V6.86038C41.8939 7.28946 42.5669 7.29016 42.5669 6.8601Z" fill="var(--fill-0, #211715)"/>
<path id="Vector_17" d="M1.37409 12.8606H17.5757C17.7109 12.8607 17.8448 12.8344 17.9698 12.7831C18.0947 12.7318 18.2083 12.6567 18.3039 12.5618C18.3995 12.467 18.4754 12.3545 18.5271 12.2306C18.5788 12.1067 18.6054 11.9739 18.6053 11.8398C18.6046 8.72091 18.6045 4.48636 18.6045 1.36749C18.6046 1.23342 18.578 1.10065 18.5263 0.976769C18.4746 0.852889 18.3988 0.74033 18.3032 0.645529C18.2076 0.550729 18.0941 0.475547 17.9692 0.424284C17.8442 0.373021 17.7104 0.346682 17.5752 0.346773H1.37283C1.2376 0.346791 1.1037 0.373234 0.978778 0.42459C0.853858 0.475946 0.740367 0.551209 0.644792 0.646077C0.549216 0.740946 0.473428 0.853561 0.421759 0.977487C0.370089 1.10141 0.343552 1.23422 0.343662 1.36832V11.8391C0.34444 12.1098 0.453261 12.3693 0.646343 12.5607C0.839425 12.7521 1.10107 12.8599 1.37409 12.8606Z" fill="var(--fill-0, white)"/>
<path id="Vector_18" d="M1.37403 13.1946H17.2801C17.5494 13.2142 17.82 13.1814 18.0766 13.0981C18.3707 12.9832 18.6158 12.7711 18.7704 12.4977C18.9069 12.2124 18.966 11.8968 18.9418 11.582V9.54331C18.9418 8.093 18.9418 6.6426 18.9418 5.19211C18.9418 4.48354 18.9418 3.77489 18.9418 3.06614V2.04849C18.9621 1.72889 18.9522 1.40811 18.9123 1.09034C18.8449 0.785248 18.6745 0.512139 18.4292 0.316263C18.1838 0.120387 17.8784 0.0135007 17.5635 0.0133142C17.2307 0.00816958 16.8976 0.0133142 16.5649 0.0133142H1.69554C1.4944 0.00416137 1.29285 0.0140317 1.0936 0.0427913C0.795206 0.102721 0.52637 0.261842 0.331544 0.493846C0.116282 0.755796 0.00135731 1.08479 0.00709076 1.42265C0.00330501 2.46033 0.00709076 3.49815 0.00709076 4.53596V11.1997C-0.0137793 11.5131 -0.00207996 11.8277 0.0420038 12.1387C0.113621 12.4367 0.283595 12.7024 0.524929 12.8937C0.766263 13.0849 1.06512 13.1907 1.37403 13.1943C1.80729 13.2045 1.80715 12.5369 1.37403 12.5269C1.18972 12.5244 1.01376 12.4503 0.883994 12.3205C0.754225 12.1907 0.681015 12.0156 0.680114 11.8328C0.678571 11.7502 0.680114 11.6675 0.680114 11.5849V1.811C0.680114 1.488 0.630899 1.13275 0.883283 0.882471C1.15319 0.614119 1.56262 0.680859 1.91231 0.680859H17.4311C17.6373 0.659848 17.8443 0.713585 18.0137 0.832138C18.0958 0.900835 18.1613 0.986938 18.2053 1.08409C18.2494 1.18124 18.2708 1.28697 18.2682 1.39345C18.2732 2.03597 18.2682 2.67863 18.2682 3.32101C18.2682 6.06599 18.2684 8.81098 18.269 11.556C18.269 11.8119 18.2892 12.0635 18.1165 12.2748C18.0461 12.3572 17.9578 12.4227 17.8582 12.4665C17.7587 12.5102 17.6504 12.531 17.5416 12.5273C17.0978 12.5307 16.6539 12.5273 16.2096 12.5273H1.37403C0.94063 12.5272 0.939368 13.1946 1.37403 13.1946Z" fill="var(--fill-0, #211715)"/>
<path id="Vector_19" d="M0.484016 3.3843H18.4649C18.8981 3.3843 18.8988 2.7169 18.4649 2.7169H0.484016C0.0508974 2.7169 0.0501963 3.3843 0.484016 3.3843Z" fill="var(--fill-0, #211715)"/>
<path id="Vector_20" d="M2.0551 1.09065C1.97593 1.08895 1.89722 1.10306 1.82366 1.13216C1.75011 1.16125 1.68321 1.20473 1.62695 1.26C1.57069 1.31527 1.52623 1.3812 1.4962 1.45387C1.46618 1.52653 1.45121 1.60445 1.45219 1.68298C1.44561 1.7634 1.45665 1.84428 1.48454 1.92007C1.51244 1.99587 1.55653 2.06479 1.61379 2.1221C1.67106 2.17942 1.74015 2.22378 1.81632 2.25214C1.89249 2.2805 1.97395 2.2922 2.0551 2.28642C2.1364 2.2928 2.21812 2.28152 2.29457 2.25337C2.37102 2.22522 2.44037 2.18088 2.49776 2.12343C2.55516 2.06598 2.59924 1.99681 2.62691 1.92074C2.65459 1.84467 2.66521 1.76353 2.65802 1.68298C2.65906 1.60443 2.64413 1.52649 2.61412 1.4538C2.58412 1.3811 2.53966 1.31515 2.48339 1.25987C2.42712 1.20458 2.36019 1.16111 2.28661 1.13204C2.21303 1.10297 2.13429 1.08889 2.0551 1.09065Z" fill="var(--fill-0, #3D8DCC)"/>
<path id="Vector_21" d="M6.22182 5.48719L3.90844 7.70298C3.84632 7.76607 3.81154 7.85075 3.81154 7.93893C3.81154 8.02711 3.84632 8.1118 3.90844 8.17489L6.22196 10.3907C6.53393 10.6892 7.01066 10.2178 6.6977 9.91876L4.38432 7.70298V8.17489L6.69784 5.9591C7.00996 5.66016 6.53365 5.18853 6.22182 5.48719Z" fill="var(--fill-0, #211715)"/>
<path id="Vector_22" d="M12.2513 5.9591L14.5648 8.17489V7.70298L12.2513 9.91876C11.9391 10.2177 12.4153 10.6893 12.7271 10.3907L15.0407 8.17489C15.1028 8.1118 15.1376 8.02711 15.1376 7.93893C15.1376 7.85075 15.1028 7.76607 15.0407 7.70298L12.7271 5.48719C12.4155 5.18866 11.939 5.66002 12.2513 5.9591Z" fill="var(--fill-0, #211715)"/>
<path id="Vector_23" d="M10.2626 5.55476L8.10516 9.9862C8.06241 10.0631 8.0511 10.1534 8.07357 10.2384C8.09603 10.3234 8.15056 10.3966 8.22588 10.4428C8.30314 10.4867 8.39468 10.4987 8.48081 10.4764C8.56693 10.454 8.64074 10.3989 8.68634 10.3231L10.8438 5.89153C10.8865 5.8146 10.8979 5.72433 10.8754 5.63938C10.8529 5.55442 10.7984 5.48127 10.7231 5.43505C10.6458 5.39113 10.5543 5.37906 10.4681 5.40146C10.382 5.42385 10.3082 5.47891 10.2626 5.55476Z" fill="var(--fill-0, #3D8DCC)"/>
</g>
<defs>
<clipPath id="clip0_0_50">
<rect width="48" height="40" fill="white"/>
</clipPath>
</defs>
</svg>
