<svg preserveAspectRatio="none" width="100%" height="100%" overflow="visible" style="display: block;" viewBox="0 0 31 51" fill="none" xmlns="http://www.w3.org/2000/svg">
<g id="18072_line 1" clip-path="url(#clip0_0_122)">
<path id="Vector" d="M6.64884 36.4699V14.5392L6.48786 14.9281L6.09693 15.0881H24.9003L24.3484 14.5392V23.6647C24.3484 26.7133 24.3484 29.7616 24.3484 32.8096V36.464L24.9003 35.9151L18.5228 35.9176L8.42459 35.9212H6.09555C5.38521 35.9212 5.38406 37.019 6.09555 37.019L12.473 37.0167L22.571 37.0129H24.9003C25.0461 37.0108 25.1853 36.9524 25.2883 36.8499C25.3914 36.7474 25.4502 36.6089 25.4522 36.464C25.4522 34.0015 25.4522 31.5391 25.4522 29.0767V14.5381C25.4502 14.3932 25.3914 14.2547 25.2883 14.1522C25.1853 14.0497 25.0461 13.9912 24.9003 13.9892H6.75324C6.56237 13.9892 6.37104 13.9846 6.18041 13.9892C6.15327 13.9892 6.12568 13.9874 6.09831 13.9892C5.39394 14.0322 5.54503 14.8695 5.54503 15.3601V36.4699C5.54503 37.1764 6.64884 37.1775 6.64884 36.4699Z" fill="var(--fill-0, #211715)"/>
<path id="Vector_2" d="M11.0345 32.0978H19.9643C20.6744 32.0978 20.6756 31 19.9643 31H11.0345C10.3244 31 10.3232 32.0978 11.0345 32.0978Z" fill="var(--fill-0, #211715)"/>
<path id="Vector_3" d="M11.0344 24.062H19.9642C20.6743 24.062 20.6755 22.9642 19.9642 22.9642H11.0344C10.3243 22.9642 10.3231 24.062 11.0344 24.062Z" fill="var(--fill-0, #211715)"/>
<path id="Vector_4" d="M11.0344 27.8476H15.9592C16.6696 27.8476 16.6707 26.7498 15.9592 26.7498H11.0344C10.3243 26.7498 10.3231 27.8476 11.0344 27.8476Z" fill="var(--fill-0, #211715)"/>
<path id="Vector_5" d="M30.4467 6.55274H28.0268L22.3845 6.55457L15.024 6.55708L7.45071 6.56028L1.16659 6.56257H0.551904C-0.158442 6.56257 -0.159592 7.66037 0.551904 7.66037C2.55409 7.66159 4.55628 7.66091 6.55846 7.65831L14.0536 7.65557L21.5236 7.65328L27.4641 7.65122C28.432 7.65122 29.4038 7.67615 30.3713 7.65122C30.3964 7.65122 30.4216 7.65122 30.4467 7.65122C31.1571 7.65122 31.1582 6.55342 30.4467 6.55342V6.55274Z" fill="var(--fill-0, #211715)"/>
<path id="Vector_6" d="M0.551904 44.4553C4.34073 44.4475 8.12955 44.4461 11.9184 44.4512L24.1499 44.4473L30.4467 44.445C31.1568 44.445 31.1582 43.3472 30.4467 43.3472L18.9082 43.3511L6.68977 43.3552C4.64374 43.3552 2.59778 43.3559 0.551904 43.3575C-0.158213 43.3588 -0.159592 44.4566 0.551904 44.4553Z" fill="var(--fill-0, #211715)"/>
<path id="Vector_7" d="M27.0686 49.9015H4.53021C4.33958 49.9015 4.14871 49.9029 3.95807 49.9015C3.58252 49.9053 3.20997 49.8346 2.86221 49.6935C2.51446 49.5524 2.19847 49.3438 1.93271 49.0799C1.66696 48.8159 1.45678 48.5019 1.31445 48.1563C1.17213 47.8106 1.10052 47.4402 1.10381 47.0667C1.10381 46.9541 1.10381 46.8414 1.10381 46.7286V4.41751C1.10381 3.79657 1.11232 3.20192 1.41609 2.63015C1.6568 2.17307 2.01796 1.78969 2.46091 1.52106C2.90385 1.25242 3.41192 1.10865 3.93071 1.10512C4.06316 1.10375 4.19585 1.10512 4.32831 1.10512H25.3119C25.8898 1.10512 26.4679 1.10055 27.0461 1.10512C27.8018 1.10796 28.5257 1.40825 29.0596 1.94036C29.5934 2.47246 29.8937 3.19311 29.8948 3.94477C29.9038 5.11118 29.8948 6.2776 29.8948 7.44401V43.2946C29.8948 44.5394 29.8985 45.7843 29.8948 47.0292C29.9021 47.7826 29.6087 48.5082 29.0789 49.0467C28.5491 49.5853 27.8261 49.893 27.0686 49.9022C26.3589 49.9104 26.3571 51.0082 27.0686 51C28.1121 50.9867 29.1086 50.5664 29.8436 49.8297C30.5786 49.0929 30.9934 48.0986 30.9986 47.0607C31.0014 46.6904 30.9986 46.3199 30.9986 45.9494V4.9026C30.9986 4.57715 31.0016 4.25147 30.9986 3.92602C30.9883 2.89004 30.57 1.89939 29.8335 1.16672C29.097 0.434061 28.101 0.0178043 27.0594 0.00731868C25.2367 -0.00914835 23.4132 0.00731868 21.5905 0.00731868H4.28048C4.11008 0.00731868 3.93876 0.00320192 3.76859 0.0112067C3.13681 0.0413866 2.52134 0.220753 1.97309 0.534466C1.42485 0.848178 0.959601 1.28722 0.615833 1.81526C0.11728 2.58121 0 3.44184 0 4.3258V46.7954C0 47.9264 0.307457 48.997 1.1245 49.8279C1.49368 50.1977 1.93254 50.4915 2.41599 50.6925C2.89944 50.8935 3.41798 50.9978 3.94198 50.9993C4.11491 51.0009 4.28692 50.9993 4.46123 50.9993H27.0686C27.7792 50.9993 27.7792 49.9015 27.0686 49.9015Z" fill="var(--fill-0, #211715)"/>
</g>
<defs>
<clipPath id="clip0_0_122">
<rect width="31" height="51" fill="white"/>
</clipPath>
</defs>
</svg>
